<svg width="19" height="19" viewBox="0 0 19 19" fill="none" xmlns="http://www.w3.org/2000/svg">
<path d="M14.4004 5.30559V3.03184C14.4004 2.83083 14.3206 2.63805 14.1784 2.49591C14.0363 2.35378 13.8435 2.27393 13.6425 2.27393H3.78958C3.38756 2.27393 3.002 2.43363 2.71773 2.7179C2.43345 3.00218 2.27375 3.38774 2.27375 3.78976C2.27375 4.19178 2.43345 4.57734 2.71773 4.86162C3.002 5.14589 3.38756 5.30559 3.78958 5.30559H15.1583C15.3593 5.30559 15.5521 5.38544 15.6943 5.52758C15.8364 5.66972 15.9163 5.8625 15.9163 6.06351V9.09518M15.9163 9.09518H13.6425C13.2405 9.09518 12.8549 9.25488 12.5706 9.53915C12.2864 9.82343 12.1267 10.209 12.1267 10.611C12.1267 11.013 12.2864 11.3986 12.5706 11.6829C12.8549 11.9671 13.2405 12.1268 13.6425 12.1268H15.9163C16.1173 12.1268 16.31 12.047 16.4522 11.9049C16.5943 11.7627 16.6742 11.5699 16.6742 11.3689V9.85309C16.6742 9.65208 16.5943 9.4593 16.4522 9.31716C16.31 9.17503 16.1173 9.09518 15.9163 9.09518Z" stroke="#35383F" stroke-linecap="round" stroke-linejoin="round"/>
<path d="M2.27375 3.78955V14.4004C2.27375 14.8024 2.43345 15.188 2.71773 15.4722C3.002 15.7565 3.38756 15.9162 3.78958 15.9162H15.1583C15.3593 15.9162 15.5521 15.8364 15.6943 15.6942C15.8364 15.5521 15.9163 15.3593 15.9163 15.1583V12.1266" stroke="#35383F" stroke-linecap="round" stroke-linejoin="round"/>
</svg>
