<svg width="20" height="20" viewBox="0 0 20 20" fill="none" xmlns="http://www.w3.org/2000/svg">
<g clip-path="url(#clip0_6181_2140)">
<path d="M1.47529 19.4452C0.451957 19.4452 0.000845909 18.7018 0.471957 17.7935L9.14362 1.09629C9.61529 0.187956 10.387 0.187956 10.8586 1.09629L19.5303 17.7941C20.0025 18.7018 19.5508 19.4452 18.5275 19.4452H1.47529Z" fill="#FFCC4D"/>
<path d="M8.6582 16.0858C8.65864 15.7296 8.80039 15.3881 9.05234 15.1363C9.30429 14.8844 9.64586 14.7428 10.0021 14.7425C10.3582 14.7429 10.6997 14.8846 10.9515 15.1364C11.2033 15.3883 11.345 15.7297 11.3454 16.0858C11.345 16.442 11.2033 16.7835 10.9515 17.0354C10.6997 17.2873 10.3583 17.4291 10.0021 17.4297C9.64581 17.4293 9.30424 17.2876 9.05231 17.0356C8.80037 16.7837 8.65864 16.4421 8.6582 16.0858ZM8.76154 5.92306C8.76154 5.19973 9.29542 4.75195 10.0015 4.75195C10.691 4.75195 11.2421 5.21695 11.2421 5.92306V12.5553C11.2421 13.2614 10.691 13.7264 10.0015 13.7264C9.29542 13.7264 8.76154 13.2781 8.76154 12.5553V5.92306Z" fill="#231F20"/>
</g>
<defs>
<clipPath id="clip0_6181_2140">
<rect width="20" height="20" fill="white"/>
</clipPath>
</defs>
</svg>
