<svg width="43" height="43" viewBox="0 0 43 43" fill="none" xmlns="http://www.w3.org/2000/svg">
<path d="M21.5 0.977539C22.9208 0.977539 24.1579 1.86624 25.6729 3.00977V3.01074C26.412 3.56896 27.2151 4.18167 28.0645 4.59961L28.4307 4.76562C29.4644 5.19423 30.7024 5.36887 31.7402 5.52051C33.4804 5.77502 34.8809 6.011 35.8281 6.81836L36.0117 6.98828C36.8392 7.8154 37.1342 9.04418 37.377 10.582L37.4795 11.2598C37.6307 12.2985 37.8059 13.5358 38.2344 14.5693C38.6426 15.5536 39.3511 16.4817 39.9883 17.3262V17.3271C41.1326 18.8423 42.0225 20.079 42.0225 21.5C42.0224 22.7432 41.3411 23.8451 40.4043 25.1162L39.9883 25.6729C39.351 26.5175 38.6426 27.4462 38.2344 28.4307C37.806 29.4641 37.6307 30.7008 37.4795 31.7393C37.2249 33.4799 36.9887 34.8809 36.1807 35.8281L36.0117 36.0117C35.0664 36.9571 33.5966 37.2079 31.7402 37.4795C30.7025 37.6312 29.4644 37.8058 28.4307 38.2344C27.4458 38.6426 26.5182 39.3506 25.6738 39.9883C24.1584 41.1321 22.921 42.0225 21.5 42.0225C20.0785 42.0223 18.8425 41.1321 17.3271 39.9883H17.3262C16.4815 39.3503 15.5534 38.6425 14.5693 38.2344C13.5357 37.8059 12.2984 37.6311 11.2607 37.4795C9.40376 37.208 7.93365 36.9571 6.98828 36.0117C6.04303 35.0664 5.7923 33.5958 5.52148 31.7402V31.7393C5.36988 30.7016 5.19505 29.4642 4.7666 28.4307H4.76562C4.45937 27.6922 3.98473 26.985 3.49707 26.3213L3.01172 25.6729C1.8678 24.1573 0.977635 22.9209 0.977539 21.5C0.977539 20.079 1.86773 18.8418 3.01172 17.3262L3.01074 17.3252C3.64868 16.4805 4.35746 15.5534 4.76562 14.5693H4.7666C5.1952 13.5356 5.36985 12.2976 5.52148 11.2598C5.79231 9.40404 6.04311 7.93365 6.98828 6.98828C7.93371 6.04289 9.40379 5.79206 11.2607 5.52051C12.2984 5.3689 13.5358 5.1941 14.5693 4.76562C15.3077 4.45942 16.0151 3.98465 16.6787 3.49707L17.3271 3.01074C18.8425 1.86697 20.0785 0.977673 21.5 0.977539Z" stroke="#61D06A" stroke-width="1.95455"/>
<path d="M28.4111 18.6843L20.5469 26.5485C20.22 26.8754 19.6899 26.8754 19.363 26.5485L14.4151 21.6006C14.0882 21.2736 14.0882 20.7436 14.4151 20.4167L15.6196 19.2122C15.9465 18.8853 16.4765 18.8853 16.8034 19.2122L19.955 22.3638L26.0228 16.296C26.3497 15.9691 26.8797 15.9691 27.2066 16.296L28.4111 17.5004C28.738 17.8274 28.738 18.3574 28.4111 18.6843Z" fill="#61D06A"/>
</svg>
