<svg width="18" height="18" viewBox="0 0 18 18" fill="none" xmlns="http://www.w3.org/2000/svg">
<path d="M12 4.125H6C3.87868 4.125 2.81802 4.125 2.15901 4.78401C1.5 5.44302 1.5 6.50368 1.5 8.625V11.25C1.5 13.3713 1.5 14.4319 2.15901 15.091C2.81802 15.75 3.87868 15.75 6 15.75H12C14.1213 15.75 15.1819 15.75 15.841 15.091C16.5 14.4319 16.5 13.3713 16.5 11.25V8.625C16.5 6.50368 16.5 5.44302 15.841 4.78401C15.1819 4.125 14.1213 4.125 12 4.125Z" stroke="url(#paint0_linear_7998_73778)" stroke-width="1.125"/>
<path d="M12.75 6.375V9.375M14.25 7.875H11.25" stroke="url(#paint1_linear_7998_73778)" stroke-width="1.125" stroke-linecap="round" stroke-linejoin="round"/>
<path d="M6.75 7.875H3.75" stroke="url(#paint2_linear_7998_73778)" stroke-width="1.125" stroke-linecap="round" stroke-linejoin="round"/>
<path d="M6.75 4.125V3.5625C6.75 3.03583 6.75 2.77249 6.6236 2.58332C6.56888 2.50143 6.49857 2.43112 6.41668 2.3764C6.22751 2.25 5.96417 2.25 5.4375 2.25C4.91083 2.25 4.64749 2.25 4.45832 2.3764C4.37643 2.43112 4.30612 2.50143 4.2514 2.58332C4.125 2.77249 4.125 3.03583 4.125 3.5625V4.125" stroke="url(#paint3_linear_7998_73778)" stroke-width="1.125" stroke-linecap="round" stroke-linejoin="round"/>
<path d="M13.875 4.125V3.5625C13.875 3.03583 13.875 2.77249 13.7486 2.58332C13.6939 2.50143 13.6236 2.43112 13.5417 2.3764C13.3525 2.25 13.0891 2.25 12.5625 2.25C12.0359 2.25 11.7725 2.25 11.5833 2.3764C11.5014 2.43112 11.4311 2.50143 11.3764 2.58332C11.25 2.77249 11.25 3.03583 11.25 3.5625V4.125" stroke="url(#paint4_linear_7998_73778)" stroke-width="1.125" stroke-linecap="round" stroke-linejoin="round"/>
<defs>
<linearGradient id="paint0_linear_7998_73778" x1="1.5" y1="9.9375" x2="16.5" y2="9.9375" gradientUnits="userSpaceOnUse">
<stop stop-color="#962FD2"/>
<stop offset="1" stop-color="#564DCE"/>
</linearGradient>
<linearGradient id="paint1_linear_7998_73778" x1="11.25" y1="7.875" x2="14.25" y2="7.875" gradientUnits="userSpaceOnUse">
<stop stop-color="#962FD2"/>
<stop offset="1" stop-color="#564DCE"/>
</linearGradient>
<linearGradient id="paint2_linear_7998_73778" x1="3.75" y1="8.375" x2="6.75" y2="8.375" gradientUnits="userSpaceOnUse">
<stop stop-color="#962FD2"/>
<stop offset="1" stop-color="#564DCE"/>
</linearGradient>
<linearGradient id="paint3_linear_7998_73778" x1="4.125" y1="3.1875" x2="6.75" y2="3.1875" gradientUnits="userSpaceOnUse">
<stop stop-color="#962FD2"/>
<stop offset="1" stop-color="#564DCE"/>
</linearGradient>
<linearGradient id="paint4_linear_7998_73778" x1="11.25" y1="3.1875" x2="13.875" y2="3.1875" gradientUnits="userSpaceOnUse">
<stop stop-color="#962FD2"/>
<stop offset="1" stop-color="#564DCE"/>
</linearGradient>
</defs>
</svg>
