<svg width="15" height="11" viewBox="0 0 15 11" fill="none" xmlns="http://www.w3.org/2000/svg">
<path d="M12.1667 9.83333C13.0871 9.83333 13.8333 9.08714 13.8333 8.16667C13.8333 7.24619 13.0871 6.5 12.1667 6.5C11.2462 6.5 10.5 7.24619 10.5 8.16667C10.5 9.08714 11.2462 9.83333 12.1667 9.83333Z" stroke="#BD4DFF"/>
<path d="M2.16667 9.83333C3.08714 9.83333 3.83333 9.08714 3.83333 8.16667C3.83333 7.24619 3.08714 6.5 2.16667 6.5C1.24619 6.5 0.5 7.24619 0.5 8.16667C0.5 9.08714 1.24619 9.83333 2.16667 9.83333Z" stroke="#BD4DFF"/>
<path d="M12.6565 2.41305C13.5109 3.45265 13.8077 4.44113 13.8329 4.9638C13.3863 4.75953 12.8847 4.64493 12.3547 4.64493C10.7246 4.64493 9.26127 5.72887 8.9118 7.1728C8.82827 7.518 8.78654 7.6906 8.6958 7.76193C8.60514 7.83333 8.4588 7.83333 8.16627 7.83333H6.24707C5.95227 7.83333 5.80489 7.83333 5.71383 7.761C5.62276 7.6886 5.58288 7.5166 5.5031 7.17253C5.17262 5.7472 3.83114 4.50827 2.43465 4.6132C2.29393 4.6238 2.22357 4.62907 2.1753 4.61833C2.12703 4.60753 2.07843 4.58013 1.98124 4.5252C1.70065 4.36673 1.41374 4.21627 1.13862 4.04847C0.755329 3.81465 0.515435 3.40366 0.500355 2.95494C0.491775 2.69955 0.638649 2.44577 0.935342 2.51559L5.2158 3.5229C5.53734 3.59857 5.69812 3.63641 5.83627 3.61065C5.9744 3.58489 6.14374 3.46907 6.48247 3.23743C7.34134 2.65012 8.70247 2.09537 10.0593 2.58548C10.4307 2.71965 10.6165 2.78673 10.7223 2.79009C10.8281 2.79344 10.9831 2.74831 11.2933 2.65805C11.7954 2.5119 12.2681 2.43606 12.6565 2.41305ZM12.6565 2.41305C12.1211 1.76141 11.3665 1.08968 10.3224 0.5" stroke="#BD4DFF" stroke-linecap="round" stroke-linejoin="round"/>
</svg>
