<svg width="20" height="20" viewBox="0 0 20 20" fill="none" xmlns="http://www.w3.org/2000/svg">
<path d="M5 18.3327V2.66602C5 2.01922 5.39248 1.66602 6 1.66602C7.39351 1.66602 8.09027 1.66602 8.67325 1.75835C11.8824 2.26664 14.3994 4.78357 14.9077 7.99276C15 8.57577 15 9.27252 15 10.666V18.3327" fill="#9100E6"/>
<path d="M5 18.3327V2.66602C5 2.01922 5.39248 1.66602 6 1.66602C7.39351 1.66602 8.09027 1.66602 8.67325 1.75835C11.8824 2.26664 14.3994 4.78357 14.9077 7.99276C15 8.57577 15 9.27252 15 10.666V18.3327" stroke="#9100E6" stroke-width="1.25" stroke-linecap="round" stroke-linejoin="round"/>
<path d="M3.33398 18.334H16.6673" stroke="#9100E6" stroke-width="1.25" stroke-linecap="round"/>
<path d="M15.168 7.5H12.668M16.0013 10.8333H12.668M16.0013 14.1667H12.668" stroke="white" stroke-width="1.25" stroke-linecap="round"/>
</svg>
