<svg width="20" height="20" viewBox="0 0 20 20" fill="none" xmlns="http://www.w3.org/2000/svg">
<path d="M13.3346 1.66406V4.9974M6.66797 1.66406V4.9974" stroke="#BDBDBD" stroke-width="1.68757" stroke-linecap="round" stroke-linejoin="round"/>
<path d="M10.8314 3.33594H9.16471C6.02201 3.33594 4.45067 3.33594 3.47436 4.31225C2.49805 5.28856 2.49805 6.8599 2.49805 10.0026V11.6693C2.49805 14.8119 2.49805 16.3834 3.47436 17.3596C4.45067 18.3359 6.02201 18.3359 9.16471 18.3359H10.8314C13.974 18.3359 15.5455 18.3359 16.5217 17.3596C17.498 16.3834 17.498 14.8119 17.498 11.6693V10.0026C17.498 6.8599 17.498 5.28856 16.5217 4.31225C15.5455 3.33594 13.974 3.33594 10.8314 3.33594Z" fill="#BDBDBD"/>
<path d="M2.27734 8.35156L17.7196 8.31201" stroke="white" stroke-width="1.25" stroke-linecap="round" stroke-linejoin="round"/>
<path d="M9.99755 11.6641H10.0051M9.99755 14.9974H10.0051M13.3271 11.6641H13.3346M6.66797 11.6641H6.67544M6.66797 14.9974H6.67544" stroke="white" stroke-width="1.66667" stroke-linecap="round" stroke-linejoin="round"/>
</svg>
