<svg width="18" height="18" viewBox="0 0 18 18" fill="none" xmlns="http://www.w3.org/2000/svg">
<path d="M5.62503 4.5V5.0625C5.8131 5.0625 5.98874 4.9685 6.09306 4.81202L5.62503 4.5ZM10.5147 2.92343C10.7886 3.07002 11.1294 2.96681 11.276 2.69291C11.4226 2.41901 11.3193 2.07813 11.0454 1.93154L10.5147 2.92343ZM16.9092 6.46586C16.8189 6.16858 16.5048 6.00069 16.2075 6.09087C15.9103 6.18105 15.7424 6.49515 15.8326 6.79244L16.9092 6.46586ZM15.9375 8.625V10.125H17.0625V8.625H15.9375ZM10.875 15.1875H7.12503V16.3125H10.875V15.1875ZM2.06253 10.125V8.625H0.937531V10.125H2.06253ZM9.26951 1.6875H8.73056V2.8125H9.26951V1.6875ZM5.76641 3.27388L5.157 4.18798L6.09306 4.81202L6.70246 3.89792L5.76641 3.27388ZM8.73056 1.6875C8.34791 1.6875 8.02271 1.68694 7.75271 1.71212C7.4711 1.73837 7.20929 1.79525 6.9546 1.93154L7.48544 2.92343C7.56236 2.88224 7.66286 2.85037 7.85718 2.83226C8.06298 2.81306 8.32736 2.8125 8.73056 2.8125V1.6875ZM6.70246 3.89792C6.92615 3.56239 7.07323 3.34278 7.20339 3.18215C7.32622 3.03056 7.40849 2.96462 7.48544 2.92343L6.9546 1.93154C6.69992 2.06785 6.50737 2.25415 6.32931 2.4739C6.15858 2.6846 5.97869 2.95547 5.76641 3.27388L6.70246 3.89792ZM2.06253 8.625C2.06253 7.53743 2.06864 7.1183 2.16749 6.79243L1.09093 6.46586C0.931426 6.99168 0.937531 7.61925 0.937531 8.625H2.06253ZM5.62503 3.9375C4.61928 3.9375 3.99171 3.9314 3.46589 4.0909L3.79246 5.16746C4.11833 5.06861 4.53743 5.0625 5.62503 5.0625V3.9375ZM2.16749 6.79243C2.4038 6.0134 3.01343 5.40377 3.79246 5.16746L3.46589 4.0909C2.32731 4.43629 1.43632 5.32728 1.09093 6.46586L2.16749 6.79243ZM7.12503 15.1875C5.87845 15.1875 4.99296 15.1866 4.31353 15.1063C3.64651 15.0275 3.25175 14.8788 2.9537 14.6342L2.24 15.5039C2.77172 15.9402 3.40824 16.1321 4.18147 16.2235C4.94228 16.3134 5.906 16.3125 7.12503 16.3125V15.1875ZM0.937531 10.125C0.937531 11.3441 0.936608 12.3077 1.02654 13.0686C1.11794 13.8418 1.30982 14.4783 1.74618 15.0101L2.61582 14.2964C2.37122 13.9983 2.2226 13.6035 2.14376 12.9365C2.06345 12.2571 2.06253 11.3716 2.06253 10.125H0.937531ZM2.9537 14.6342C2.83028 14.5329 2.71711 14.4197 2.61582 14.2964L1.74618 15.0101C1.89422 15.1904 2.05962 15.3558 2.24 15.5039L2.9537 14.6342ZM15.9375 10.125C15.9375 11.3716 15.9366 12.2571 15.8563 12.9365C15.7775 13.6035 15.6288 13.9983 15.3843 14.2964L16.2539 15.0101C16.6902 14.4783 16.8822 13.8418 16.9735 13.0686C17.0634 12.3077 17.0625 11.3441 17.0625 10.125H15.9375ZM10.875 16.3125C12.0941 16.3125 13.0578 16.3134 13.8186 16.2235C14.5918 16.1321 15.2283 15.9402 15.7601 15.5039L15.0464 14.6342C14.7483 14.8788 14.3535 15.0275 13.6866 15.1063C13.0071 15.1866 12.1216 15.1875 10.875 15.1875V16.3125ZM15.3843 14.2964C15.2829 14.4197 15.1698 14.5329 15.0464 14.6342L15.7601 15.5039C15.9405 15.3558 16.1058 15.1904 16.2539 15.0101L15.3843 14.2964ZM9.26951 2.8125C9.67271 2.8125 9.93708 2.81306 10.1429 2.83226C10.3372 2.85037 10.4377 2.88224 10.5147 2.92343L11.0454 1.93154C10.7908 1.79525 10.529 1.73837 10.2474 1.71212C9.97736 1.68694 9.65216 1.6875 9.26951 1.6875V2.8125ZM17.0625 8.625C17.0625 7.61925 17.0686 6.99168 16.9092 6.46586L15.8326 6.79244C15.9315 7.1183 15.9375 7.53743 15.9375 8.625H17.0625Z" fill="#35383F"/>
<path d="M12 9.75C12 11.4068 10.6568 12.75 9 12.75C7.34314 12.75 6 11.4068 6 9.75C6 8.09317 7.34314 6.75 9 6.75C10.6568 6.75 12 8.09317 12 9.75Z" stroke="#35383F" stroke-width="1.125" stroke-linecap="round" stroke-linejoin="round"/>
<path d="M13.4803 2.26611C13.4846 2.24463 13.5154 2.24463 13.5197 2.26611C13.7477 3.38106 14.6189 4.25238 15.7339 4.48026C15.7554 4.48466 15.7554 4.51534 15.7339 4.51974C14.6189 4.74762 13.7477 5.61894 13.5197 6.73389C13.5154 6.75537 13.4846 6.75537 13.4803 6.73389C13.2524 5.61894 12.3811 4.74762 11.2661 4.51974C11.2446 4.51534 11.2446 4.48466 11.2661 4.48026C12.3811 4.25238 13.2524 3.38106 13.4803 2.26611Z" stroke="#35383F" stroke-width="1.125" stroke-linecap="round" stroke-linejoin="round"/>
</svg>
