<svg width="18" height="18" viewBox="0 0 18 18" fill="none" xmlns="http://www.w3.org/2000/svg">
<path d="M2.23539 9.9666C1.69438 10.9433 1.54316 12.1521 1.50089 12.7516C1.48632 12.9581 1.65259 13.125 1.85994 13.125H2.9863M2.23539 9.9666C2.23539 7.608 2.92195 4.76178 4.29508 3.53341C4.41611 3.42514 4.57593 3.375 4.7384 3.375H8.33385C8.76832 3.375 9.20205 3.46282 9.56647 3.69916C10.4654 4.28215 11.8239 5.45978 12.9778 7.267C13.0733 7.41644 13.2158 7.52985 13.3826 7.5903C14.0469 7.83113 14.7865 8.16525 15.2597 8.38792C15.5792 8.5383 15.8337 8.80057 15.9547 9.132C16.288 10.0447 16.4761 11.0631 16.5 12.7495C16.5028 12.9566 16.3345 13.125 16.1271 13.125H15.0007M2.23539 9.9666C2.50601 9.47798 2.87416 9.04755 3.375 8.78048M11.9971 13.125H5.9899" stroke="url(#paint0_linear_7998_73768)" stroke-width="1.125" stroke-linecap="round" stroke-linejoin="round"/>
<path d="M6 13.125C6 13.9534 5.32843 14.625 4.5 14.625C3.67157 14.625 3 13.9534 3 13.125C3 12.2966 3.67157 11.625 4.5 11.625C5.32843 11.625 6 12.2966 6 13.125Z" stroke="url(#paint1_linear_7998_73768)" stroke-width="1.125"/>
<path d="M15 13.125C15 13.9534 14.3284 14.625 13.5 14.625C12.6716 14.625 12 13.9534 12 13.125C12 12.2966 12.6716 11.625 13.5 11.625C14.3284 11.625 15 12.2966 15 13.125Z" stroke="url(#paint2_linear_7998_73768)" stroke-width="1.125"/>
<path d="M13.125 7.5C10.875 6.75 8.25 6.375 5.25 6.75C5.25 5.25 6 3.75 6.375 3.375" stroke="url(#paint3_linear_7998_73768)" stroke-width="1.125" stroke-linecap="round" stroke-linejoin="round"/>
<path d="M6 8.25H6.75" stroke="url(#paint4_linear_7998_73768)" stroke-width="1.125" stroke-linecap="round" stroke-linejoin="round"/>
<defs>
<linearGradient id="paint0_linear_7998_73768" x1="1.5" y1="8.25" x2="16.5" y2="8.25" gradientUnits="userSpaceOnUse">
<stop stop-color="#962FD2"/>
<stop offset="1" stop-color="#564DCE"/>
</linearGradient>
<linearGradient id="paint1_linear_7998_73768" x1="3" y1="13.125" x2="6" y2="13.125" gradientUnits="userSpaceOnUse">
<stop stop-color="#962FD2"/>
<stop offset="1" stop-color="#564DCE"/>
</linearGradient>
<linearGradient id="paint2_linear_7998_73768" x1="12" y1="13.125" x2="15" y2="13.125" gradientUnits="userSpaceOnUse">
<stop stop-color="#962FD2"/>
<stop offset="1" stop-color="#564DCE"/>
</linearGradient>
<linearGradient id="paint3_linear_7998_73768" x1="5.25" y1="5.4375" x2="13.125" y2="5.4375" gradientUnits="userSpaceOnUse">
<stop stop-color="#962FD2"/>
<stop offset="1" stop-color="#564DCE"/>
</linearGradient>
<linearGradient id="paint4_linear_7998_73768" x1="6" y1="8.75" x2="6.75" y2="8.75" gradientUnits="userSpaceOnUse">
<stop stop-color="#962FD2"/>
<stop offset="1" stop-color="#564DCE"/>
</linearGradient>
</defs>
</svg>
