<svg width="15" height="12" viewBox="0 0 15 12" fill="none" xmlns="http://www.w3.org/2000/svg">
<path d="M13.8333 8.1148V10.1667C13.8333 10.4773 13.8333 10.6326 13.7826 10.7551C13.7149 10.9185 13.5851 11.0483 13.4218 11.1159C13.2993 11.1667 13.1439 11.1667 12.8333 11.1667C12.5227 11.1667 12.3674 11.1667 12.2449 11.1159C12.0815 11.0483 11.9517 10.9185 11.8841 10.7551C11.8333 10.6326 11.8333 10.4773 11.8333 10.1667C11.8333 9.85607 11.8333 9.70073 11.7826 9.5782C11.7149 9.41487 11.5851 9.28507 11.4218 9.2174C11.2993 9.16667 11.1439 9.16667 10.8333 9.16667H3.5C3.18937 9.16667 3.03406 9.16667 2.91155 9.2174C2.74819 9.28507 2.61841 9.41487 2.55075 9.5782C2.5 9.70073 2.5 9.85607 2.5 10.1667C2.5 10.4773 2.5 10.6326 2.44925 10.7551C2.38159 10.9185 2.25181 11.0483 2.08845 11.1159C1.96594 11.1667 1.81063 11.1667 1.5 11.1667C1.18937 11.1667 1.03406 11.1667 0.911547 11.1159C0.748193 11.0483 0.618407 10.9185 0.550747 10.7551C0.5 10.6326 0.5 10.4773 0.5 10.1667V8.1148C0.5 7.31333 0.5 6.91253 0.61442 6.53467C0.72884 6.15673 0.95114 5.82327 1.39573 5.1564L1.83333 4.5L2.47436 2.96154C2.97151 1.76838 3.22009 1.1718 3.72393 0.8359C4.22778 0.5 4.87408 0.5 6.16667 0.5H8.16667C9.45927 0.5 10.1055 0.5 10.6094 0.8359C11.1133 1.1718 11.3618 1.76838 11.859 2.96154L12.5 4.5L12.9376 5.1564C13.3822 5.82327 13.6045 6.15673 13.7189 6.53467C13.8333 6.91253 13.8333 7.31333 13.8333 8.1148Z" stroke="#BD4DFF" stroke-linecap="round" stroke-linejoin="round"/>
<path d="M0.5 3.5L1.83333 4.5L3.00743 4.79353C3.11319 4.81993 3.22179 4.83333 3.33081 4.83333H11.0025C11.1115 4.83333 11.2201 4.81993 11.3259 4.79353L12.5 4.5L13.8333 3.5" stroke="#BD4DFF" stroke-linecap="round" stroke-linejoin="round"/>
<path d="M11.1641 7.16797V7.17464" stroke="#BD4DFF" stroke-width="1.33333" stroke-linecap="round" stroke-linejoin="round"/>
<path d="M3.16406 7.16797V7.17464" stroke="#BD4DFF" stroke-width="1.33333" stroke-linecap="round" stroke-linejoin="round"/>
</svg>
