<svg width="14" height="11" viewBox="0 0 14 11" fill="none" xmlns="http://www.w3.org/2000/svg">
<path d="M4.91211 2.30208C4.91211 1.54133 4.91211 1.16096 5.09468 0.887716C5.17372 0.769427 5.27529 0.667864 5.39358 0.588824C5.66682 0.40625 6.04717 0.40625 6.80794 0.40625C7.56871 0.40625 7.94907 0.40625 8.22229 0.588824C8.34059 0.667864 8.44215 0.769427 8.52118 0.887716C8.70378 1.16096 8.70378 1.54133 8.70378 2.30208" stroke="#E765FF" stroke-width="0.8125" stroke-linecap="round" stroke-linejoin="round"/>
<path d="M12.2259 6.36719V6.09635C12.2259 4.30896 12.2259 3.41524 11.6706 2.85997C11.1153 2.30469 10.2216 2.30469 8.43424 2.30469H5.18424C3.39684 2.30469 2.50313 2.30469 1.94786 2.85997C1.39258 3.41524 1.39258 4.30896 1.39258 6.09635V6.36719C1.39258 8.15458 1.39258 9.04827 1.94786 9.60359C2.50313 10.1589 3.39684 10.1589 5.18424 10.1589H8.43424C10.2216 10.1589 11.1153 10.1589 11.6706 9.60359C12.2259 9.04827 12.2259 8.15458 12.2259 6.36719Z" fill="#E765FF" stroke="#E765FF" stroke-width="0.8125" stroke-linecap="round" stroke-linejoin="round"/>
<path d="M0.308594 4.78125C0.308594 4.78125 2.01912 6.78125 6.80859 6.78125C11.5981 6.78125 13.3086 4.78125 13.3086 4.78125" stroke="#F5E8FB" stroke-width="0.8125" stroke-linejoin="round"/>
<path d="M6.80859 5.28125H6.81347" stroke="#F5E8FB" stroke-width="1.08333" stroke-linecap="round" stroke-linejoin="round"/>
</svg>
