<svg width="20" height="20" viewBox="0 0 20 20" fill="none" xmlns="http://www.w3.org/2000/svg">
<path d="M12.0827 8.75129C12.0827 9.90187 11.1499 10.8346 9.99935 10.8346C8.84877 10.8346 7.91602 9.90187 7.91602 8.75129C7.91602 7.60071 8.84877 6.66797 9.99935 6.66797C11.1499 6.66797 12.0827 7.60071 12.0827 8.75129Z" stroke="#35383F" stroke-width="1.25" stroke-linecap="round" stroke-linejoin="round"/>
<path d="M13.3327 2.91797C15.3988 2.91797 16.8246 3.23814 17.6101 3.48157C18.0623 3.62174 18.3327 4.05038 18.3327 4.52384V12.6532C18.3327 13.5825 17.3093 14.2816 16.3962 14.1092C15.6128 13.9613 14.5916 13.8425 13.3327 13.8425C9.3736 13.8425 8.42402 15.3472 2.62002 14.0673C2.05989 13.9438 1.66602 13.4401 1.66602 12.8665V4.51894C1.66602 3.70573 2.43334 3.11269 3.231 3.27098C8.4966 4.31586 9.51677 2.91797 13.3327 2.91797Z" stroke="#35383F" stroke-width="1.25" stroke-linecap="round" stroke-linejoin="round"/>
<path d="M1.66602 6.2487C3.29212 6.2487 4.75337 4.91959 4.94019 3.54384M15.4164 3.33203C15.4164 5.03173 16.8873 6.63952 18.3327 6.63952M18.3327 11.2487C16.7501 11.2487 15.2161 12.3405 15.0843 13.8306M4.99976 14.1621C4.99976 12.3212 3.50737 10.8288 1.66642 10.8288" stroke="#35383F" stroke-width="1.25" stroke-linecap="round" stroke-linejoin="round"/>
<path d="M15.8327 16.4441C15.1424 16.3304 14.3092 16.25 13.3331 16.25C9.75443 16.25 8.63468 17.6332 4.16602 16.8356" stroke="#35383F" stroke-width="1.25" stroke-linecap="round" stroke-linejoin="round"/>
</svg>
