<svg width="20" height="20" viewBox="0 0 20 20" fill="none" xmlns="http://www.w3.org/2000/svg">
<path d="M1.68164 11.25C3.51462 11.25 5.00054 12.7359 5.00054 14.5689" stroke="#B973EA" stroke-width="1.25" stroke-linecap="round" stroke-linejoin="round"/>
<path d="M15 14.5689V14.4923C15 12.7017 16.4517 11.25 18.2423 11.25" stroke="#B973EA" stroke-width="1.25" stroke-linecap="round" stroke-linejoin="round"/>
<path d="M5.00054 2.92969C5.00054 4.76267 3.51462 6.24859 1.68164 6.24859" stroke="#B973EA" stroke-width="1.25" stroke-linecap="round" stroke-linejoin="round"/>
<path d="M15 2.92969C15 4.74662 16.4742 6.22255 18.2853 6.24825" stroke="#B973EA" stroke-width="1.25" stroke-linecap="round" stroke-linejoin="round"/>
<path d="M13.3327 2.91699H6.66602C4.30899 2.91699 3.13048 2.91699 2.39825 3.64923C1.66602 4.38146 1.66602 5.55997 1.66602 7.91699V9.58366C1.66602 11.9407 1.66602 13.1192 2.39825 13.8514C3.13048 14.5837 4.30899 14.5837 6.66602 14.5837H13.3327C15.6897 14.5837 16.8682 14.5837 17.6004 13.8514C18.3327 13.1192 18.3327 11.9407 18.3327 9.58366V7.91699C18.3327 5.55997 18.3327 4.38146 17.6004 3.64923C16.8682 2.91699 15.6897 2.91699 13.3327 2.91699Z" stroke="#B973EA" stroke-width="1.25" stroke-linecap="round" stroke-linejoin="round"/>
<path d="M4.16602 17.083H15.8327" stroke="#B973EA" stroke-width="1.25" stroke-linecap="round" stroke-linejoin="round"/>
<path d="M12.5 8.75C12.5 10.1307 11.3807 11.25 10 11.25C8.61925 11.25 7.5 10.1307 7.5 8.75C7.5 7.36929 8.61925 6.25 10 6.25C11.3807 6.25 12.5 7.36929 12.5 8.75Z" stroke="#B973EA" stroke-width="1.25" stroke-linecap="round" stroke-linejoin="round"/>
</svg>
