<svg width="20" height="20" viewBox="0 0 20 20" fill="none" xmlns="http://www.w3.org/2000/svg">
<path d="M2.08398 9.9987C2.08398 6.26675 2.08398 4.40077 3.24335 3.2414C4.40273 2.08203 6.2687 2.08203 10.0007 2.08203C13.7326 2.08203 15.5986 2.08203 16.758 3.2414C17.9173 4.40077 17.9173 6.26675 17.9173 9.9987C17.9173 13.7306 17.9173 15.5966 16.758 16.756C15.5986 17.9154 13.7326 17.9154 10.0007 17.9154C6.2687 17.9154 4.40273 17.9154 3.24335 16.756C2.08398 15.5966 2.08398 13.7306 2.08398 9.9987Z" fill="#9100E6" stroke="#9100E6" stroke-width="1.25"/>
<path d="M6.66602 11.4583C6.66602 11.4583 7.99935 12.2188 8.66602 13.3333C8.66602 13.3333 10.666 8.95833 13.3327 7.5" stroke="white" stroke-width="1.25" stroke-linecap="round" stroke-linejoin="round"/>
</svg>
