<svg width="18" height="18" viewBox="0 0 18 18" fill="none" xmlns="http://www.w3.org/2000/svg">
<path d="M0.625 11.4585C0.743975 11.8147 0.883525 12.1611 1.04218 12.4962M2.39623 14.5804C2.65965 14.8866 2.9425 15.1748 3.24281 15.443M6.45833 17.2918C6.0852 17.1716 5.72251 17.0272 5.37201 16.8603" stroke="#35383F" stroke-width="1.25" stroke-linecap="round" stroke-linejoin="round"/>
<path d="M8.96094 10.2085C9.65127 10.2085 10.2109 9.64883 10.2109 8.9585C10.2109 8.26816 9.65127 7.7085 8.96094 7.7085C8.2706 7.7085 7.71094 8.26816 7.71094 8.9585M8.96094 10.2085C8.2706 10.2085 7.71094 9.64883 7.71094 8.9585M8.96094 10.2085V12.2918M7.71094 8.9585H3.96094" stroke="#35383F" stroke-width="1.25" stroke-linecap="round"/>
<path d="M8.95833 17.2917C13.5607 17.2917 17.2917 13.5607 17.2917 8.95833C17.2917 4.35596 13.5607 0.625 8.95833 0.625C4.35596 0.625 0.625 4.35596 0.625 8.95833" stroke="#35383F" stroke-width="1.25" stroke-linecap="round"/>
</svg>
