<svg width="88" height="89" viewBox="0 0 88 89" fill="none" xmlns="http://www.w3.org/2000/svg">
<path d="M65.7312 66.871C75.2187 57.3835 75.2187 42.0012 65.7312 32.5137C56.2437 23.0262 40.8615 23.0262 31.374 32.5137C21.8865 42.0012 21.8865 57.3835 31.374 66.871C40.8615 76.3585 56.2437 76.3585 65.7312 66.871Z" fill="#F1F1F2"/>
<path d="M67.0823 17.6468C67.4649 17.1919 67.119 16.2744 67.8545 15.3241L60.9863 10.6183C60.9863 10.6183 70.2601 1.80452 80.6905 7.30439C91.1209 12.8043 84.3316 28.9547 84.3316 28.9547L76.9307 22.9624C75.7738 23.9293 73.4998 24.1978 72.3431 25.1647C71.1137 23.2686 69.3738 21.707 67.3564 20.6889C67.125 20.5722 65.7424 19.5843 65.7097 19.3272C65.6829 19.1165 66.9455 17.8095 67.0823 17.6468Z" fill="#F5E8FB"/>
<path d="M20.2569 28.5717C19.7464 28.2671 18.4942 27.434 17.4883 26.7766L23.0788 17.1106C23.0788 17.1106 11.4322 12.7928 3.37463 21.402C-4.68284 30.0113 7.01573 43.0523 7.01573 43.0523L12.8768 33.9434C14.2863 34.4787 15.6956 35.014 17.105 35.5493C17.6465 33.3554 18.7799 31.3105 20.3532 29.6885C20.5337 29.5025 20.7353 29.274 20.6821 29.0204C20.6388 28.8124 20.4393 28.6806 20.2569 28.5717Z" fill="#F5E8FB"/>
<path d="M36.4607 16.9173C36.4607 16.9173 32.6963 7.80972 40.1529 6.55564C47.6095 5.30155 47.8087 14.54 47.8087 14.54L54.762 14.4577C54.762 14.4577 53.2819 -2.07777 39.2516 0.218858C26.2624 2.34504 30.0487 20.3891 30.0487 20.3891C30.0487 20.3891 35.5928 17.2764 36.4607 16.9173Z" fill="#F5E8FB"/>
<path d="M43.0873 15.6121C24.5645 18.7273 12.074 36.2683 15.1893 54.7911C18.3044 73.314 35.8455 85.8044 54.3684 82.6891C72.8912 79.574 85.3815 62.0329 82.2664 43.51C79.1511 24.9874 61.6101 12.4969 43.0873 15.6121ZM52.7157 72.8625C39.62 75.065 27.2184 66.2342 25.0159 53.1385C22.8135 40.0428 31.6442 27.6413 44.7399 25.4389C57.8356 23.2364 70.2372 32.0672 72.4395 45.1629C74.6421 58.2584 65.8114 70.66 52.7157 72.8625Z" fill="#DD93FF"/>
<path d="M76.1377 70.4761C77.6498 72.397 78.4033 75.8438 79.2108 78.1513C79.3396 78.5194 79.46 78.9158 79.3635 79.2939C79.1872 79.9848 78.3308 80.3113 77.6343 80.1589C76.9377 80.0066 76.3722 79.5152 75.8397 79.0411C74.7085 78.0342 72.0257 76.5524 70.8945 75.5455L76.1377 70.4761Z" fill="#F5E8FB"/>
<path d="M29.402 78.1255C28.6015 80.4354 28.1666 84.2921 28.1583 86.7367C28.1569 87.1268 28.1729 87.5407 28.3878 87.8663C28.7805 88.4615 29.6964 88.4899 30.3049 88.1181C30.9133 87.7464 31.287 87.0971 31.6351 86.4748C32.3748 85.1533 34.4252 82.8755 35.1647 81.5538L29.402 78.1255Z" fill="#F5E8FB"/>
<path d="M42.268 15.5819C40.8633 15.8181 38.3798 16.5613 37.0469 16.9497C37.3401 16.8929 37.6302 16.8297 37.9265 16.7798C56.5448 13.6486 74.6251 26.6673 77.6207 44.4797C80.3904 60.9482 69.4898 78.0907 53.1581 82.8493C72.4093 81.2541 85.055 61.3244 82.4072 43.7476C79.4252 23.9518 60.8865 12.4506 42.268 15.5819Z" fill="#EABCFF"/>
<path d="M83.2946 8.84961C83.2946 8.84961 85.731 18.9458 81.0605 25.7904L85.4439 29.4657C85.4439 29.4657 90.9037 14.9141 83.2946 8.84961Z" fill="#EFCCFF"/>
<path d="M38.6836 2.16963C38.6836 2.16963 47.3073 -0.159369 51.6388 14.1734L54.7632 14.4576C54.7632 14.4576 51.6076 -2.70058 38.6836 2.16963Z" fill="#EFCCFF"/>
<path d="M7.29326 21.9444C5.00724 24.9538 4.13568 28.6821 4.84311 32.3941C5.10502 33.7684 7.25269 33.4123 6.98984 32.0331C6.38275 28.8478 7.10535 25.7887 9.06646 23.2071C9.91573 22.0892 8.14064 20.8289 7.29326 21.9444Z" fill="white"/>
<path d="M48.5537 84.1355C29.2789 84.1355 13.5977 68.4543 13.5977 49.1795C13.5977 29.9047 29.2788 14.2236 48.5537 14.2236C67.8286 14.2236 83.5097 29.9047 83.5097 49.1795C83.5097 68.4543 67.8285 84.1355 48.5537 84.1355ZM48.5537 15.7598C30.1259 15.7598 15.1339 30.7519 15.1339 49.1795C15.1339 67.6072 30.126 82.5993 48.5537 82.5993C66.9814 82.5993 81.9736 67.6072 81.9736 49.1795C81.9736 30.7519 66.9815 15.7598 48.5537 15.7598Z" fill="#35383F"/>
<path d="M48.5533 74.6836C34.7732 74.6836 23.5625 63.4728 23.5625 49.6929C23.5625 35.9129 34.7732 24.7021 48.5533 24.7021C62.3333 24.7021 73.5441 35.9129 73.5441 49.6929C73.5441 63.4728 62.3333 74.6836 48.5533 74.6836ZM48.5533 26.2383C35.6204 26.2383 25.0986 36.76 25.0986 49.6929C25.0986 62.6259 35.6202 73.1474 48.5533 73.1474C61.4863 73.1474 72.0079 62.6259 72.0079 49.6929C72.0079 36.76 61.4862 26.2383 48.5533 26.2383Z" fill="#35383F"/>
<path d="M86.1355 30.9061L60.0137 10.3249L60.7989 9.72375C64.0107 7.26447 67.1377 5.78085 70.358 5.18812C74.3847 4.44631 78.4992 5.17052 82.586 7.33915C86.3884 9.35721 88.2515 13.9283 87.9736 20.558C87.7697 25.4238 86.5136 29.6485 86.4601 29.8258L86.1355 30.9061ZM62.531 10.3527L85.2814 28.2776C86.2039 24.5175 88.6074 12.2741 81.8658 8.69625C75.3022 5.2127 68.9682 5.75224 62.531 10.3527Z" fill="#35383F"/>
<path d="M7.01314 44.7501L6.33956 43.8452C6.22889 43.6967 3.60816 40.1529 1.75799 35.648C-0.762938 29.5099 -0.569393 24.5778 2.31768 21.3845C5.42032 17.9528 9.04155 15.8701 13.0805 15.1945C16.3105 14.6544 19.7556 14.9834 23.6132 16.2008L24.5562 16.4984L7.01314 44.7501ZM16.1219 16.4837C11.2223 16.4837 7.04148 18.4508 3.4576 22.4149C-1.6662 28.0818 4.76984 38.7692 6.91993 41.9883L22.1993 17.3823C20.0592 16.7838 18.0354 16.4837 16.1219 16.4837Z" fill="#35383F"/>
<path d="M13.2443 33.6438L12.8438 35.127L16.3814 36.0823L16.7819 34.5992L13.2443 33.6438Z" fill="#35383F"/>
<path d="M18.4239 26.0996L17.4473 27.2852L19.9653 29.3595L20.942 28.1739L18.4239 26.0996Z" fill="#35383F"/>
<path d="M67.3377 15.78L65.1582 19.2144L66.4554 20.0376L68.6349 16.6032L67.3377 15.78Z" fill="#35383F"/>
<path d="M76.8414 22.0436L72.9961 23.9824L73.6877 25.3542L77.533 23.4154L76.8414 22.0436Z" fill="#35383F"/>
<path d="M77.6389 80.9909C76.8387 80.9909 75.9984 80.7338 75.2073 80.2383C74.3373 79.6931 73.6618 78.9697 73.0085 78.2701L70.4688 75.5501L71.5916 74.5016L74.1314 77.2216C74.7172 77.8491 75.3228 78.498 76.0229 78.9365C76.7186 79.3724 77.4674 79.5442 78.0765 79.4077C78.2064 79.3787 78.2773 79.3418 78.3045 79.3225C78.3128 79.2789 78.3164 79.1659 78.3175 79.1264C78.4103 76.1388 77.412 73.0715 75.5784 70.7109L76.7918 69.7686C78.8711 72.4456 79.9584 75.7858 79.853 79.174C79.8449 79.4336 79.8233 79.7362 79.6663 80.0396C79.5095 80.3423 79.1649 80.7384 78.4123 80.9069C78.1612 80.9629 77.9022 80.9909 77.6389 80.9909Z" fill="#35383F"/>
<path d="M29.5122 88.6911C29.0022 88.6911 28.5155 88.5282 28.1502 88.2072C27.5819 87.7081 27.4226 86.992 27.3417 86.3577C26.9647 83.4049 27.4752 80.305 28.7793 77.6289L30.1603 78.3018C28.9859 80.7119 28.5261 83.5038 28.8654 86.1632C28.9076 86.4923 28.9793 86.8908 29.1641 87.0532C29.3374 87.2053 29.7226 87.1867 30.0238 87.0111C30.432 86.7732 30.7597 86.3207 31.077 85.8833L34.8344 80.6962L36.0786 81.5975L32.3209 86.7847C31.9487 87.2981 31.4857 87.9371 30.7971 88.3385C30.3919 88.5745 29.9437 88.6911 29.5122 88.6911Z" fill="#35383F"/>
<path d="M37.0031 16.9405C36.9016 15.262 36.8349 13.5657 36.9132 11.8847C36.9774 10.5057 37.2665 8.89875 38.4423 8.01067C39.5633 7.16409 41.2745 7.21459 42.6028 7.35213C43.2901 7.42331 44.0096 7.61122 44.5533 8.05741C45.0511 8.46572 45.3871 9.03064 45.659 9.6055C46.4223 11.22 46.7986 13.0848 46.9401 14.8547C47.0182 15.8336 48.5552 15.842 48.4764 14.8547C48.3239 12.9468 47.9267 11.0439 47.1821 9.27563C46.5036 7.6644 45.3898 6.37527 43.6259 5.97246C42.0012 5.60148 39.9812 5.60216 38.4343 6.26499C36.8115 6.96034 35.8699 8.55826 35.5579 10.2431C35.1557 12.4159 35.3343 14.7478 35.467 16.9405C35.5264 17.9229 37.0631 17.9296 37.0031 16.9405Z" fill="#35383F"/>
<path d="M29.1809 20.3909C29.1576 20.3032 28.6134 18.2087 28.5076 15.3753C28.3659 11.5837 29.0952 8.27691 30.6167 5.81253C32.3129 3.06528 34.9742 1.29396 38.5264 0.547979C42.9276 -0.376367 46.513 0.067404 49.1835 1.86667C53.6207 4.85662 54.7183 10.9614 55.5198 15.419L54.0077 15.6908C53.2128 11.2698 52.2237 5.76767 48.3251 3.14063C45.9793 1.56016 42.878 1.20397 38.8422 2.05135C35.7179 2.70761 33.3903 4.24455 31.9238 6.61962C28.6104 11.9863 30.6456 19.9202 30.6664 19.9997L29.1809 20.3909Z" fill="#35383F"/>
<path d="M44.0108 25.9701C44.3518 28.2612 44.6927 30.5525 45.0337 32.8436C45.0947 33.253 45.6137 33.4823 45.9786 33.38C46.4179 33.257 46.5766 32.8488 46.5151 32.4351C46.174 30.144 45.8332 27.8528 45.4921 25.5616C45.4312 25.1523 44.9122 24.923 44.5472 25.0252C44.1079 25.1482 43.9493 25.5565 44.0108 25.9701Z" fill="#35383F"/>
<path d="M50.5616 66.2504C50.9026 68.5415 51.2435 70.8327 51.5845 73.1239C51.6455 73.5333 52.1645 73.7625 52.5294 73.6603C52.9687 73.5373 53.1275 73.129 53.0658 72.7154C52.7248 70.4243 52.3839 68.133 52.0429 65.8419C51.9819 65.4325 51.4629 65.2033 51.098 65.3055C50.6587 65.4285 50.5 65.8368 50.5616 66.2504Z" fill="#35383F"/>
<path d="M71.1856 44.7318C68.8953 45.0783 66.605 45.425 64.3147 45.7715C63.9054 45.8334 63.6757 46.3508 63.7782 46.7164C63.901 47.1551 64.3097 47.3154 64.7231 47.2528C67.0134 46.9063 69.3037 46.5596 71.594 46.2131C72.0033 46.1512 72.2328 45.6338 72.1305 45.2682C72.0076 44.8297 71.599 44.6692 71.1856 44.7318Z" fill="#35383F"/>
<path d="M31.3907 51.5862C29.1004 51.9328 26.8101 52.2794 24.5197 52.6259C24.1105 52.6879 23.8808 53.2052 23.9833 53.5708C24.1061 54.0094 24.5148 54.1699 24.9282 54.1073C27.2185 53.7608 29.5088 53.4141 31.7991 53.0676C32.2084 53.0056 32.4381 52.4883 32.3356 52.1227C32.2127 51.6841 31.8041 51.5238 31.3907 51.5862Z" fill="#35383F"/>
<path d="M48.4231 52.6323C46.8155 52.6323 45.5078 51.3245 45.5078 49.717C45.5078 48.1096 46.8155 46.8018 48.4231 46.8018C50.0307 46.8018 51.3384 48.1096 51.3384 49.717C51.3384 51.3245 50.0306 52.6323 48.4231 52.6323ZM48.4231 48.3379C47.6626 48.3379 47.044 48.9566 47.044 49.717C47.044 50.4774 47.6625 51.096 48.4231 51.096C49.1837 51.096 49.8022 50.4774 49.8022 49.717C49.8021 48.9567 49.1836 48.3379 48.4231 48.3379Z" fill="#35383F"/>
<path d="M47.4052 47.6996C44.0304 44.6606 40.6555 41.6215 37.2808 38.5825C36.803 38.1523 36.3254 37.7221 35.8476 37.2921C35.6666 37.7291 35.4855 38.1662 35.3045 38.6034C37.2308 38.8336 39.157 39.0639 41.0832 39.2941C41.4958 39.3434 41.8513 38.9058 41.8513 38.526C41.8513 38.0699 41.497 37.8073 41.0832 37.7579C39.157 37.5277 37.2307 37.2973 35.3045 37.0671C34.6398 36.9877 34.2954 37.9587 34.7613 38.3784C38.1361 41.4174 41.511 44.4565 44.8857 47.4955C45.3635 47.9257 45.8411 48.3559 46.3189 48.7859C47.0518 49.4458 48.1417 48.3629 47.4052 47.6996Z" fill="#35383F"/>
<path d="M34.5641 38.0402C34.8826 39.8725 35.2012 41.7048 35.5196 43.5369C35.6886 44.5091 37.1693 44.097 37.001 43.1285C36.6825 41.2962 36.3639 39.4639 36.0455 37.6317C35.8764 36.6597 34.3957 37.0718 34.5641 38.0402Z" fill="#35383F"/>
<path d="M46.8473 51.2738C45.1661 53.7628 43.4849 56.2518 41.8039 58.7407C41.5676 59.0906 41.3312 59.4405 41.0949 59.7903C40.7175 60.349 41.3426 61.1061 41.9623 60.9186C43.4684 60.463 44.9746 60.0075 46.4807 59.5519C47.4245 59.2664 47.0222 57.7832 46.0722 58.0705C44.5661 58.5261 43.06 58.9817 41.5539 59.4373C41.8431 59.8134 42.1322 60.1896 42.4213 60.5657C44.1025 58.0767 45.7837 55.5877 47.4648 53.0988C47.701 52.7489 47.9374 52.399 48.1737 52.0492C48.7287 51.2276 47.3983 50.458 46.8473 51.2738Z" fill="#35383F"/>
<path d="M42.5246 60.176C42.5246 58.5272 42.5246 56.8785 42.5246 55.2298C42.5246 54.2413 40.9883 54.2396 40.9883 55.2298C40.9883 56.8786 40.9883 58.5273 40.9883 60.176C40.9884 61.1644 42.5246 61.166 42.5246 60.176Z" fill="#35383F"/>
</svg>
