<svg width="18" height="18" viewBox="0 0 18 18" fill="none" xmlns="http://www.w3.org/2000/svg">
<path d="M2.50977 12.1481L12.1315 2.52637M13.9742 8.29157L12.3246 9.9412M10.9167 11.3323L10.1826 12.0663" stroke="url(#paint0_linear_7998_73751)" stroke-width="1.125" stroke-linecap="round"/>
<path d="M2.381 12.1058C1.20633 10.9312 1.20633 9.02663 2.381 7.85198L7.85198 2.381C9.02663 1.20633 10.9312 1.20633 12.1058 2.381L15.619 5.89418C16.7937 7.06886 16.7937 8.97338 15.619 10.148L10.148 15.619C8.97338 16.7937 7.06886 16.7937 5.89418 15.619L2.381 12.1058Z" stroke="url(#paint1_linear_7998_73751)" stroke-width="1.125"/>
<path d="M3 16.5H15" stroke="url(#paint2_linear_7998_73751)" stroke-width="1.125" stroke-linecap="round"/>
<defs>
<linearGradient id="paint0_linear_7998_73751" x1="2.50977" y1="7.33722" x2="13.9742" y2="7.33722" gradientUnits="userSpaceOnUse">
<stop stop-color="#962FD2"/>
<stop offset="1" stop-color="#564DCE"/>
</linearGradient>
<linearGradient id="paint1_linear_7998_73751" x1="1.5" y1="9.00001" x2="16.5" y2="9.00001" gradientUnits="userSpaceOnUse">
<stop stop-color="#962FD2"/>
<stop offset="1" stop-color="#564DCE"/>
</linearGradient>
<linearGradient id="paint2_linear_7998_73751" x1="3" y1="17" x2="15" y2="17" gradientUnits="userSpaceOnUse">
<stop stop-color="#962FD2"/>
<stop offset="1" stop-color="#564DCE"/>
</linearGradient>
</defs>
</svg>
