<svg width="18" height="18" viewBox="0 0 18 18" fill="none" xmlns="http://www.w3.org/2000/svg">
<path d="M1.875 8.99998C1.875 5.64124 1.875 3.96186 2.91843 2.91843C3.96187 1.875 5.64124 1.875 9 1.875C12.3587 1.875 14.0381 1.875 15.0816 2.91843C16.125 3.96186 16.125 5.64124 16.125 8.99998C16.125 12.3588 16.125 14.0381 15.0816 15.0816C14.0381 16.125 12.3587 16.125 9 16.125C5.64124 16.125 3.96187 16.125 2.91843 15.0816C1.875 14.0381 1.875 12.3588 1.875 8.99998Z" stroke="#9100E6" stroke-width="1.125"/>
<path d="M1.875 6.75H16.125" stroke="#9100E6" stroke-width="1.125" stroke-linejoin="round"/>
<path d="M5.25 4.5H5.25673" stroke="#9100E6" stroke-width="1.5" stroke-linecap="round" stroke-linejoin="round"/>
<path d="M8.25 4.5H8.25675" stroke="#9100E6" stroke-width="1.5" stroke-linecap="round" stroke-linejoin="round"/>
<path d="M12.75 12.75C12.75 10.679 11.071 9 9 9C6.92893 9 5.25 10.679 5.25 12.75" stroke="#9100E6" stroke-width="1.125" stroke-linecap="round"/>
<path d="M9.5294 11.4697L8.46875 12.5304" stroke="#9100E6" stroke-width="1.125" stroke-linecap="round" stroke-linejoin="round"/>
</svg>
