<svg width="18" height="18" viewBox="0 0 18 18" fill="none" xmlns="http://www.w3.org/2000/svg">
<path d="M11.8776 9.79183C14.8691 9.79183 17.2943 9.04564 17.2943 8.12516C17.2943 7.20469 14.8691 6.4585 11.8776 6.4585C8.88606 6.4585 6.46094 7.20469 6.46094 8.12516C6.46094 9.04564 8.88606 9.79183 11.8776 9.79183Z" stroke="#35383F" stroke-width="1.25"/>
<path d="M17.2943 11.875C17.2943 12.7955 14.8692 13.5417 11.8776 13.5417C8.88602 13.5417 6.46094 12.7955 6.46094 11.875" stroke="#35383F" stroke-width="1.25"/>
<path d="M17.2943 8.125V15.4583C17.2943 16.4708 14.8692 17.2917 11.8776 17.2917C8.88602 17.2917 6.46094 16.4708 6.46094 15.4583V8.125" stroke="#35383F" stroke-width="1.25"/>
<path d="M6.04167 3.95833C9.03321 3.95833 11.4583 3.21214 11.4583 2.29167C11.4583 1.37119 9.03321 0.625 6.04167 0.625C3.05012 0.625 0.625 1.37119 0.625 2.29167C0.625 3.21214 3.05012 3.95833 6.04167 3.95833Z" stroke="#35383F" stroke-width="1.25"/>
<path d="M3.95833 8.12516C2.38182 7.93333 0.933258 7.43725 0.625 6.4585M3.95833 12.2918C2.38182 12.1 0.933258 11.6039 0.625 10.6252" stroke="#35383F" stroke-width="1.25" stroke-linecap="round"/>
<path d="M3.95833 16.4587C2.38182 16.2668 0.933258 15.7707 0.625 14.792V2.29199" stroke="#35383F" stroke-width="1.25" stroke-linecap="round"/>
<path d="M11.4609 3.95866V2.29199" stroke="#35383F" stroke-width="1.25" stroke-linecap="round"/>
</svg>
