<svg width="48" height="48" viewBox="0 0 48 48" fill="none" xmlns="http://www.w3.org/2000/svg">
<g clip-path="url(#clip0_4696_26369)">
<path fill-rule="evenodd" clip-rule="evenodd" d="M23.9997 0.666748V15.8334C23.9997 17.7664 25.5667 19.3334 27.4997 19.3334H42.6663V42.6668C42.6663 45.2442 40.5771 47.3334 37.9997 47.3334H9.99967C7.42234 47.3334 5.33301 45.2442 5.33301 42.6668V5.33342C5.33301 2.75608 7.42234 0.666748 9.99967 0.666748H23.9997ZM30.9997 31.0001H16.9997C15.711 31.0001 14.6663 32.0447 14.6663 33.3334C14.6663 34.6221 15.711 35.6668 16.9997 35.6668H30.9997C32.2884 35.6668 33.333 34.6221 33.333 33.3334C33.333 32.0447 32.2884 31.0001 30.9997 31.0001ZM19.333 21.6667H16.9997C15.711 21.6667 14.6663 22.7114 14.6663 24.0001C14.6663 25.2888 15.711 26.3334 16.9997 26.3334H19.333C20.6217 26.3334 21.6663 25.2888 21.6663 24.0001C21.6663 22.7114 20.6217 21.6667 19.333 21.6667ZM28.6663 0.767921C29.5434 0.953631 30.3559 1.38987 30.9997 2.03359L41.2995 12.3334C41.9432 12.9771 42.3796 13.7896 42.5651 14.6667H28.6663V0.767921Z" fill="#E6E7E9"/>
</g>
<defs>
<clipPath id="clip0_4696_26369">
<rect width="48" height="48" fill="white"/>
</clipPath>
</defs>
</svg>
