<svg width="220" height="202" viewBox="0 0 220 202" fill="none" xmlns="http://www.w3.org/2000/svg">
<path opacity="0.1" d="M107.109 201.313C166.263 201.313 214.218 197.903 214.218 193.697C214.218 189.49 166.263 186.08 107.109 186.08C47.9543 186.08 0 189.49 0 193.697C0 197.903 47.9543 201.313 107.109 201.313Z" fill="#E4C5F7"/>
<path d="M168.137 194.714H63.0307C59.7102 194.714 57.1627 191.768 57.6421 188.482L69.6997 105.908C69.9924 103.903 71.7123 102.416 73.739 102.416H141.21L147.36 94.7421C148.643 93.141 150.583 92.2092 152.635 92.2092L183.871 92.2065C186.36 92.206 188.27 94.415 187.91 96.8785L174.417 189.285C173.962 192.402 171.288 194.714 168.137 194.714Z" fill="#D1A1F0"/>
<path d="M61.4725 194.714H168.638C171.286 194.714 173.335 192.393 173.006 189.766L163.596 114.506C163.317 112.276 161.421 110.603 159.174 110.603H51.2635C48.5832 110.603 46.5092 112.952 46.8417 115.611L56.1448 190.011C56.481 192.698 58.7648 194.714 61.4725 194.714Z" fill="#E4C5F7"/>
<path d="M96.8302 145.881C96.813 145.864 96.7963 145.847 96.7855 145.837C96.5789 145.663 96.367 145.494 96.1561 145.324C95.7805 145.022 95.405 144.721 95.0295 144.418C94.6357 144.101 94.2419 143.785 93.8486 143.469C93.9707 143.309 94.0918 143.154 94.2456 142.959C94.6185 142.488 94.9972 142.023 95.3528 141.538C95.6977 141.068 96.0377 140.663 96.1964 140.09C96.4186 139.288 95.6487 138.492 94.8364 138.73C93.777 139.041 92.8662 140.041 92.0958 140.809C91.8661 141.038 91.6433 141.272 91.4179 141.505C90.98 141.154 90.5372 140.81 90.0788 140.489C89.2541 139.911 88.2464 138.787 87.1618 138.885C86.4694 138.947 85.791 139.446 85.8276 140.219C85.8873 141.5 87.1597 142.353 87.9704 143.221C88.3051 143.579 88.6575 143.922 89.0158 144.259C88.6037 144.774 88.2012 145.296 87.8268 145.834C87.1489 146.808 86.2225 147.929 86.1859 149.158C86.1504 150.348 87.4599 150.929 88.425 150.443C89.0141 150.147 89.4042 149.567 89.7754 149.041C90.0853 148.601 90.393 148.16 90.711 147.727C90.9848 147.353 91.2522 146.976 91.5207 146.599C91.9236 146.977 92.3261 147.356 92.729 147.734C93.1218 148.103 93.5102 148.478 93.9142 148.835C94.1897 149.078 94.4678 149.351 94.7804 149.543C95.3544 149.897 95.985 149.903 96.6263 149.787C97.5269 149.625 98.123 148.643 98.1456 147.792C98.1461 147.775 98.1467 147.759 98.1467 147.743C98.1703 146.87 97.5882 146.177 96.8302 145.881Z" fill="#2E344B"/>
<path d="M125.535 144.577C125.518 144.56 125.501 144.543 125.491 144.533C125.284 144.359 125.072 144.19 124.861 144.02C124.486 143.718 124.11 143.416 123.735 143.114C123.341 142.797 122.947 142.48 122.554 142.164C122.676 142.004 122.797 141.849 122.951 141.655C123.324 141.183 123.702 140.719 124.058 140.234C124.403 139.763 124.743 139.358 124.901 138.786C125.124 137.983 124.354 137.187 123.541 137.425C122.482 137.736 121.571 138.737 120.801 139.504C120.571 139.733 120.348 139.968 120.123 140.201C119.685 139.85 119.242 139.506 118.784 139.184C117.959 138.606 116.951 137.482 115.867 137.58C115.174 137.643 114.497 138.142 114.533 138.915C114.592 140.195 115.865 141.048 116.675 141.917C117.01 142.275 117.362 142.618 117.721 142.955C117.309 143.469 116.906 143.991 116.532 144.529C115.854 145.504 114.928 146.625 114.891 147.853C114.855 149.044 116.165 149.625 117.13 149.138C117.719 148.842 118.109 148.262 118.48 147.736C118.79 147.296 119.098 146.855 119.416 146.422C119.69 146.048 119.957 145.671 120.226 145.294C120.629 145.672 121.031 146.051 121.434 146.429C121.827 146.798 122.215 147.173 122.619 147.53C122.895 147.774 123.173 148.046 123.485 148.238C124.059 148.592 124.69 148.598 125.331 148.482C126.232 148.32 126.828 147.338 126.851 146.486C126.851 146.47 126.852 146.454 126.852 146.437C126.875 145.566 126.293 144.874 125.535 144.577Z" fill="#2E344B"/>
<path d="M114.525 154.782C113.489 154.29 112.408 153.889 111.309 153.561C109.244 152.945 107.021 152.562 104.863 152.766C103.022 152.94 101.164 153.474 99.6518 154.575C98.8604 155.15 98.1755 155.799 97.5843 156.579C97.0726 157.255 96.5916 158.189 96.696 159.054C96.7697 159.663 97.4003 160.214 98.0163 159.812C98.6167 159.419 99.0761 158.849 99.5899 158.349C100.068 157.885 100.602 157.532 101.202 157.227C101.812 156.915 102.304 156.722 103.036 156.535C103.913 156.311 104.26 156.261 105.091 156.244C106.846 156.206 108.494 156.597 110.188 157.194C111.056 157.5 111.906 157.856 112.758 158.201C112.781 158.211 112.793 158.216 112.809 158.222C113.041 158.322 113.18 158.381 113.226 158.4C113.242 158.407 113.252 158.412 113.27 158.42C113.444 158.506 113.624 158.58 113.808 158.64C114.235 158.788 114.629 158.873 115.086 158.905C115.88 158.961 116.494 158.202 116.521 157.47C116.568 156.211 115.579 155.284 114.525 154.782Z" fill="#2E344B"/>
<path d="M163.284 103.348C163.23 103.155 163.132 102.988 162.991 102.846C162.849 102.705 162.682 102.607 162.489 102.553C162.13 102.454 161.629 102.539 161.382 102.846C161.31 102.935 161.239 103.026 161.171 103.118C161.131 103.211 161.092 103.303 161.053 103.396C161.031 103.448 161.002 103.501 160.986 103.555C160.928 103.743 160.931 103.963 160.91 104.16C160.885 104.389 160.857 104.611 160.864 104.841C160.873 105.14 160.867 105.444 160.922 105.739C160.947 105.866 160.974 105.987 161.024 106.107C161.095 106.274 161.206 106.405 161.326 106.538C161.535 106.77 161.932 106.806 162.193 106.65C162.312 106.578 162.432 106.503 162.532 106.406C162.644 106.298 162.737 106.127 162.807 105.985C162.934 105.728 163.013 105.445 163.104 105.173C163.175 104.963 163.216 104.754 163.257 104.537C163.331 104.155 163.435 103.724 163.284 103.348Z" fill="white"/>
<path d="M170.252 103.625C170.143 103.269 169.836 102.877 169.442 102.815C169.251 102.785 169.104 102.763 168.918 102.788C168.631 102.826 168.44 102.942 168.213 103.125C168.12 103.2 168.025 103.275 167.941 103.36C167.765 103.538 167.617 103.755 167.464 103.952C167.103 104.416 166.768 104.888 166.449 105.381C166.32 105.581 166.191 105.782 166.066 105.985C165.902 106.25 165.796 106.555 165.675 106.841C165.581 107.066 165.479 107.281 165.44 107.522C165.401 107.77 165.369 108.013 165.504 108.241C165.636 108.466 165.835 108.579 166.093 108.6C166.648 108.645 167.113 108.058 167.478 107.716C167.817 107.4 168.102 107.04 168.408 106.691C168.705 106.352 169.007 106.019 169.303 105.679C169.797 105.114 170.506 104.458 170.252 103.625Z" fill="white"/>
<path d="M171.216 111.309C171.016 111.133 170.825 110.98 170.564 110.901C170.359 110.839 170.148 110.811 169.934 110.811C169.605 110.81 169.28 110.856 168.96 110.928C168.719 110.982 168.48 111.051 168.248 111.133C168.071 111.195 167.887 111.254 167.734 111.362C167.571 111.476 167.443 111.594 167.313 111.74C167.132 111.943 167.046 112.2 167.12 112.469C167.185 112.705 167.394 112.947 167.644 112.993C167.732 113.009 167.819 113.03 167.908 113.043C168.02 113.061 168.136 113.08 168.25 113.084C168.293 113.086 168.335 113.081 168.378 113.076C168.37 113.077 168.362 113.078 168.353 113.08C168.377 113.076 168.402 113.076 168.426 113.073C168.428 113.073 168.429 113.073 168.431 113.073C168.788 113.03 169.148 113.013 169.508 113.031C169.7 113.04 169.901 113.041 170.093 113.031C170.253 113.023 170.43 112.994 170.588 112.956C170.749 112.917 170.891 112.823 171.032 112.742C171.514 112.461 171.66 111.7 171.216 111.309Z" fill="white"/>
<path opacity="0.7" d="M117.078 17.0015L104.117 27.1196L99.1836 80.2027H147.625L153.499 17.0015H117.078Z" fill="#F5E8FB"/>
<path d="M116.136 27.1196L117.077 17.0015L104.115 27.1196H116.136Z" fill="#6779B7"/>
<path d="M132.773 43.0571C133.44 42.2593 134.221 41.4453 134.48 40.4069C134.693 39.5505 133.947 38.8984 133.128 39.0555C132.167 39.2406 131.374 39.9147 130.619 40.493C129.791 41.1273 129.002 41.8063 128.217 42.4917C127.114 43.4547 126.054 44.4817 125.007 45.5131C124.471 44.7432 123.94 43.9712 123.405 43.2018C122.869 42.4304 122.34 41.6567 121.77 40.9094C121.17 40.1213 120.564 39.2196 119.7 38.701C118.946 38.248 117.681 38.8155 117.795 39.7942C118.016 41.7035 119.381 43.537 120.347 45.1553C120.969 46.1969 121.613 47.2228 122.269 48.2413C121.497 49.0235 120.728 49.8095 119.961 50.5977C118.577 52.0207 116.699 53.5158 116.028 55.4289C115.631 56.5598 116.933 58.0102 118.114 57.5147C120.016 56.7163 121.37 54.8694 122.778 53.4141C123.364 52.8089 123.958 52.2117 124.549 51.6118C125.27 52.6319 126.003 53.6438 126.762 54.6364C127.368 55.4294 127.981 56.2176 128.606 56.9956C128.917 57.3835 129.216 57.8058 129.58 58.1458C130.248 58.7693 130.916 58.8985 131.8 58.75C132.433 58.6434 132.885 58.0393 133.074 57.476C133.519 56.1487 132.516 55.1825 131.724 54.2625C131.129 53.5707 130.543 52.8713 129.966 52.1638C129.063 51.0555 128.194 49.9209 127.344 48.7723C128.532 47.5763 129.736 46.3889 130.88 45.1542C131.521 44.4645 132.168 43.7791 132.773 43.0571Z" fill="#EF877B"/>
<path d="M113.294 10.946L100.332 21.0642L95.3984 74.1473H143.84L149.714 10.946H113.294Z" fill="#F5E8FB"/>
<path d="M112.354 21.0642L113.294 10.946L100.332 21.0642H112.354Z" fill="#8EADD5"/>
<path d="M128.987 37.0017C129.654 36.2038 130.435 35.3899 130.694 34.3515C130.908 33.495 130.162 32.8424 129.343 33.0001C128.382 33.1846 127.589 33.8593 126.834 34.4376C126.006 35.0719 125.217 35.7509 124.432 36.4363C123.329 37.3993 122.269 38.4263 121.221 39.4577C120.686 38.6878 120.155 37.9158 119.62 37.1464C119.084 36.3749 118.555 35.6013 117.985 34.854C117.385 34.0659 116.779 33.1642 115.915 32.6455C115.161 32.1925 113.896 32.7601 114.01 33.7387C114.231 35.6481 115.596 37.4816 116.562 39.0999C117.184 40.1415 117.828 41.1674 118.484 42.1858C117.711 42.9681 116.943 43.7541 116.176 44.5417C114.792 45.9647 112.914 47.4604 112.243 49.373C111.846 50.5038 113.148 51.9543 114.329 51.4588C116.231 50.6604 117.585 48.8134 118.993 47.3581C119.579 46.7529 120.173 46.1557 120.764 45.5553C121.485 46.5754 122.218 47.5873 122.977 48.5805C123.583 49.3735 124.195 50.1617 124.821 50.9396C125.132 51.3275 125.431 51.7498 125.795 52.0898C126.463 52.7134 127.131 52.8425 128.015 52.694C128.648 52.5875 129.1 51.9833 129.289 51.42C129.734 50.0928 128.731 49.1266 127.939 48.2066C127.344 47.5147 126.758 46.8153 126.181 46.1078C125.278 44.9996 124.409 43.8649 123.558 42.7163C124.747 41.5203 125.95 40.333 127.095 39.0983C127.735 38.4091 128.383 37.7237 128.987 37.0017Z" fill="#8EADD5"/>
<path d="M99.7461 74.1466L144.976 75.8493L149.151 17.0005L143.84 74.1466H99.7461Z" fill="#2E344B"/>
<path d="M103.5 10.3988C103.278 10.1476 103.064 9.89098 102.82 9.66126C102.581 9.43799 102.351 9.2088 102.095 9.00597C101.959 8.89891 101.825 8.79024 101.69 8.68318C101.593 8.60732 101.511 8.54007 101.398 8.49218C101.373 8.48196 101.349 8.47174 101.325 8.46152C101.254 8.43139 101.182 8.40126 101.111 8.3706C100.856 8.26138 100.604 8.24202 100.37 8.42278C100.172 8.57558 100.04 8.8747 100.131 9.12433C100.198 9.30994 100.255 9.54505 100.362 9.70698C100.45 9.83879 100.552 9.96307 100.647 10.09C100.891 10.4166 101.154 10.713 101.433 11.0089C101.664 11.2543 101.921 11.4646 102.18 11.6798C102.348 11.8192 102.513 11.9752 102.702 12.0839C102.933 12.2157 103.183 12.3647 103.457 12.3303C103.642 12.3071 103.82 12.27 103.953 12.1247C104.084 11.9816 104.144 11.8229 104.159 11.6287C104.195 11.1585 103.79 10.7265 103.5 10.3988Z" fill="white"/>
<path d="M102.447 14.9047C102.337 14.7336 102.193 14.6239 102.026 14.5249C101.817 14.3425 101.492 14.2726 101.233 14.25C101.031 14.2322 100.824 14.2236 100.621 14.2263C100.369 14.2295 100.106 14.2876 99.8575 14.335C99.5696 14.3899 99.3093 14.4646 99.1097 14.6992C98.8358 15.022 98.8643 15.4847 99.2415 15.7198C99.4002 15.8188 99.5723 15.8839 99.7622 15.8876C99.8634 15.8893 99.9651 15.8796 100.066 15.8758C100.26 15.8688 100.457 15.8817 100.649 15.857C101.058 15.8043 101.633 15.8317 101.983 15.5643C101.986 15.5627 101.986 15.5627 101.99 15.5611C102.071 15.5272 102.143 15.4987 102.212 15.4449C102.277 15.3948 102.344 15.3421 102.399 15.2819C102.488 15.1818 102.523 15.0236 102.447 14.9047Z" fill="white"/>
<path d="M107.504 7.8187C107.503 7.68258 107.507 7.54378 107.5 7.40767C107.489 7.17794 107.416 7.02515 107.291 6.84492C107.134 6.61789 106.869 6.53665 106.616 6.66792C106.437 6.76099 106.281 6.86859 106.179 7.0499C106.088 7.21345 106.022 7.4039 105.954 7.57714C105.84 7.86389 105.822 8.20121 105.781 8.50572C105.738 8.82529 105.711 9.12818 105.732 9.45044C105.756 9.81682 105.759 10.2257 105.972 10.541C106.238 10.9337 106.797 10.9579 107.058 10.541C107.177 10.3494 107.228 10.1213 107.255 9.90129C107.263 9.84265 107.268 9.78293 107.277 9.72428C107.281 9.699 107.285 9.67318 107.287 9.6608C107.339 9.3224 107.378 8.98723 107.41 8.64721C107.423 8.51487 107.435 8.38037 107.455 8.24856C107.459 8.22435 107.463 8.20175 107.464 8.19314C107.483 8.06833 107.505 7.94513 107.504 7.8187Z" fill="white"/>
<path d="M195.464 5.21104L198.267 6.11972L195.464 7.0284C194.322 7.39908 193.426 8.29431 193.056 9.43702L192.147 12.2394L191.238 9.43702C190.868 8.29431 189.972 7.39908 188.83 7.0284L186.027 6.11972L188.83 5.21104C189.972 4.84036 190.868 3.94514 191.238 2.80243L192.147 0L193.056 2.80243C193.426 3.9446 194.322 4.84036 195.464 5.21104Z" fill="white"/>
<path d="M11.8491 161.248L14.6516 162.156L11.8491 163.065C10.707 163.436 9.81119 164.331 9.44051 165.474L8.53183 168.276L7.62316 165.474C7.25248 164.331 6.35725 163.436 5.21454 163.065L2.41211 162.156L5.21454 161.248C6.35725 160.877 7.25248 159.982 7.62316 158.839L8.53183 156.037L9.44051 158.839C9.81065 159.982 10.7064 160.878 11.8491 161.248Z" fill="white"/>
<path d="M114.815 87.8899L117.114 88.6356L114.815 89.3812C113.878 89.6852 113.143 90.4196 112.84 91.3573L112.094 93.6562L111.349 91.3573C111.045 90.4201 110.31 89.6852 109.373 89.3812L107.074 88.6356L109.373 87.8899C110.31 87.5859 111.045 86.8516 111.349 85.9139L112.094 83.615L112.84 85.9139C113.144 86.851 113.878 87.5859 114.815 87.8899Z" fill="white"/>
<path d="M216.839 167.465L219.138 168.211L216.839 168.957C215.902 169.261 215.167 169.995 214.863 170.932L214.118 173.231L213.372 170.932C213.068 169.995 212.334 169.26 211.397 168.957L209.098 168.211L211.397 167.465C212.334 167.161 213.069 166.427 213.372 165.49L214.118 163.191L214.863 165.49C215.167 166.427 215.902 167.162 216.839 167.465Z" fill="white"/>
<path d="M205.456 13.398L206.717 13.8069L205.456 14.2158C204.942 14.3825 204.54 14.7855 204.373 15.2993L203.964 16.5598L203.555 15.2993C203.388 14.7855 202.985 14.3825 202.471 14.2158L201.211 13.8069L202.471 13.398C202.985 13.2312 203.388 12.8283 203.555 12.3145L203.964 11.054L204.373 12.3145C204.54 12.8283 204.942 13.2312 205.456 13.398Z" fill="white"/>
<path d="M37.4641 7.18292L38.7246 7.5918L37.4641 8.00068C36.9503 8.16746 36.5473 8.57042 36.3806 9.0842L35.9717 10.3447L35.5628 9.0842C35.396 8.57042 34.9931 8.16746 34.4793 8.00068L33.2188 7.5918L34.4793 7.18292C34.9931 7.01614 35.396 6.61318 35.5628 6.0994L35.9717 4.83887L36.3806 6.0994C36.5473 6.61318 36.9503 7.01614 37.4641 7.18292Z" fill="white"/>
<path d="M128.923 106.879C128.758 106.558 128.609 106.231 128.479 105.897" stroke="white" stroke-width="0.537997" stroke-linecap="round" stroke-linejoin="round"/>
<path d="M127.898 103.847C127.16 99.7644 128.657 95.2549 131.905 92.6279C135.738 89.529 141.041 89.2073 145.965 89.0093C151.03 88.8054 156.126 88.5859 161.075 87.4878C164.397 86.7508 167.709 85.5774 170.322 83.3974C172.935 81.2175 174.761 77.8894 174.476 74.4984C174.192 71.1069 171.419 67.8961 168.02 67.7396C164.62 67.583 161.397 71.1644 162.424 74.4091C163.016 76.2813 164.781 77.636 166.695 78.0745C168.609 78.513 170.637 78.1369 172.45 77.3826C176.359 75.7563 179.469 72.3147 180.692 68.2603C181.384 65.9636 181.492 63.526 181.345 61.1319C181.168 58.2541 180.607 55.3344 179.141 52.8521C177.21 49.5843 173.847 47.3473 170.257 46.1153C167.34 45.1146 164.261 44.7165 161.175 44.519" stroke="white" stroke-width="0.537997" stroke-linecap="round" stroke-linejoin="round" stroke-dasharray="2.13 2.13"/>
<path d="M160.119 44.4594C159.76 44.4411 159.401 44.4249 159.043 44.4104" stroke="white" stroke-width="0.537997" stroke-linecap="round" stroke-linejoin="round"/>
<path d="M86.5704 106.176C78.303 108.522 68.9865 107.267 61.8892 102.422C54.7919 97.5769 50.1775 89.1191 50.4024 80.5283C50.6273 71.9376 55.8884 63.5572 63.72 60.0199C66.6924 58.677 70.2039 58.0347 73.1957 59.3339C76.1875 60.6332 78.2163 64.3712 76.8154 67.3167C75.4171 70.2564 71.1449 71.0214 68.4043 69.2648C65.6638 67.5083 64.4802 63.9403 64.8584 60.7074C65.2366 57.4741 66.9324 54.5382 68.9133 51.9553C74.9286 44.1108 83.9982 38.6727 93.7521 37.063" stroke="white" stroke-width="0.537997" stroke-miterlimit="10" stroke-linecap="round" stroke-linejoin="round" stroke-dasharray="2.15 2.15"/>
</svg>
