<svg width="18" height="18" viewBox="0 0 18 18" fill="none" xmlns="http://www.w3.org/2000/svg">
<path d="M3 9.00035V10.9084C3 13.3422 3 14.5591 3.66455 15.3833C3.79881 15.5498 3.95048 15.7015 4.117 15.8358C4.94123 16.5003 6.15811 16.5003 8.59185 16.5003C9.12105 16.5003 9.38558 16.5003 9.6279 16.4148C9.6783 16.397 9.72765 16.3766 9.77588 16.3535C10.0077 16.2426 10.1947 16.0556 10.5689 15.6814L14.1213 12.129C14.5549 11.6955 14.7716 11.4786 14.8858 11.203C15 10.9274 15 10.6208 15 10.0077V7.50035C15 4.67189 15 3.25768 14.1213 2.379C13.327 1.58463 12.0949 1.50841 9.77588 1.5011M9.75 16.1253V15.7503C9.75 13.629 9.75 12.5683 10.409 11.9093C11.0681 11.2503 12.1287 11.2503 14.25 11.2503H14.625" stroke="#35383F" stroke-width="1.125" stroke-linecap="round" stroke-linejoin="round"/>
<path d="M9 4.49963H3M6 1.49963V7.49963" stroke="#35383F" stroke-width="1.125" stroke-linecap="round" stroke-linejoin="round"/>
</svg>
