<svg width="18" height="17" viewBox="0 0 18 17" fill="none" xmlns="http://www.w3.org/2000/svg">
<rect x="1.96094" y="6.125" width="10" height="9" fill="#35383F"/>
<path d="M7.67977 8.95801L6.51809 10.4683C6.3936 10.6302 6.48282 10.8631 6.68583 10.9062L7.90269 11.1644C8.11919 11.2103 8.20169 11.4682 8.05035 11.6256L6.60905 13.1247" stroke="white" stroke-width="1.25" stroke-linecap="round" stroke-linejoin="round"/>
<path d="M2.29688 6.45801H12.2969" stroke="#35383F" stroke-width="1.25" stroke-linecap="round" stroke-linejoin="round"/>
<path d="M2.29688 15.625V5.625C2.29688 3.26797 2.29688 2.08947 3.02911 1.35723C3.76134 0.625 4.93985 0.625 7.29687 0.625C9.65387 0.625 10.8324 0.625 11.5646 1.35723C12.2969 2.08947 12.2969 3.26797 12.2969 5.625V15.625H2.29688Z" stroke="#35383F" stroke-width="1.25"/>
<path d="M0.625 15.625H13.9583" stroke="#35383F" stroke-width="1.25" stroke-linecap="round" stroke-linejoin="round"/>
<path d="M12.2969 9.79167H13.6858C13.9441 9.79167 14.0733 9.79167 14.1792 9.82008C14.4668 9.89708 14.6915 10.1218 14.7685 10.4093C14.7969 10.5153 14.7969 10.6444 14.7969 10.9027V11.875C14.7969 12.5653 15.3565 13.125 16.0469 13.125C16.7372 13.125 17.2969 12.5653 17.2969 11.875V6.63425C17.2969 6.13332 17.2969 5.88284 17.2254 5.64665C17.1539 5.41046 17.0149 5.20206 16.737 4.78525L16.0925 3.81837C15.8037 3.38519 15.3175 3.125 14.7969 3.125" stroke="#35383F" stroke-width="1.25" stroke-linecap="round" stroke-linejoin="round"/>
</svg>
