<svg width="18" height="17" viewBox="0 0 18 17" fill="none" xmlns="http://www.w3.org/2000/svg">
<rect x="1.95703" y="6.125" width="10" height="9" fill="#9100E6"/>
<path d="M7.67586 8.95898L6.51418 10.4693C6.38969 10.6312 6.47891 10.8641 6.68192 10.9072L7.89878 11.1654C8.11528 11.2113 8.19778 11.4692 8.04645 11.6266L6.60514 13.1257" stroke="white" stroke-width="1.25" stroke-linecap="round" stroke-linejoin="round"/>
<path d="M2.28906 6.45898H12.2891" stroke="#9100E6" stroke-width="1.25" stroke-linecap="round" stroke-linejoin="round"/>
<path d="M2.28906 15.625V5.625C2.28906 3.26797 2.28906 2.08947 3.0213 1.35723C3.75353 0.625 4.93204 0.625 7.28906 0.625C9.64606 0.625 10.8246 0.625 11.5568 1.35723C12.2891 2.08947 12.2891 3.26797 12.2891 5.625V15.625H2.28906Z" stroke="#9100E6" stroke-width="1.25"/>
<path d="M0.625 15.625H13.9583" stroke="#9100E6" stroke-width="1.25" stroke-linecap="round" stroke-linejoin="round"/>
<path d="M12.2891 9.79167H13.678C13.9363 9.79167 14.0655 9.79167 14.1714 9.82008C14.459 9.89708 14.6836 10.1218 14.7606 10.4093C14.7891 10.5153 14.7891 10.6444 14.7891 10.9027V11.875C14.7891 12.5653 15.3487 13.125 16.0391 13.125C16.7294 13.125 17.2891 12.5653 17.2891 11.875V6.63425C17.2891 6.13332 17.2891 5.88284 17.2176 5.64665C17.1461 5.41046 17.0071 5.20206 16.7292 4.78525L16.0846 3.81837C15.7959 3.38519 15.3096 3.125 14.7891 3.125" stroke="#9100E6" stroke-width="1.25" stroke-linecap="round" stroke-linejoin="round"/>
</svg>
