<svg width="17" height="15" viewBox="0 0 17 15" fill="none" xmlns="http://www.w3.org/2000/svg">
<path d="M6.90945 8.06274L5.86394 9.42204C5.75189 9.56769 5.8322 9.77732 6.0149 9.81609L7.11008 10.0485C7.30493 10.0898 7.37918 10.3219 7.24298 10.4636L5.9458 11.8127" stroke="#9100E6" stroke-width="1.125" stroke-linecap="round" stroke-linejoin="round"/>
<path d="M2.0625 5.81274H11.0625" stroke="#9100E6" stroke-width="1.125" stroke-linecap="round" stroke-linejoin="round"/>
<path d="M2.0625 14.0625V5.0625C2.0625 2.94118 2.0625 1.88052 2.72151 1.22151C3.38052 0.5625 4.44118 0.5625 6.5625 0.5625C8.6838 0.5625 9.74445 0.5625 10.4035 1.22151C11.0625 1.88052 11.0625 2.94118 11.0625 5.0625V14.0625H2.0625Z" stroke="#9100E6" stroke-width="1.125"/>
<path d="M0.5625 14.0625H12.5625" stroke="#9100E6" stroke-width="1.125" stroke-linecap="round" stroke-linejoin="round"/>
<path d="M11.0625 8.8125H12.3125C12.545 8.8125 12.6613 8.8125 12.7566 8.83807C13.0154 8.90737 13.2176 9.10958 13.2869 9.3684C13.3125 9.46373 13.3125 9.57997 13.3125 9.81247V10.6875C13.3125 11.3088 13.8162 11.8125 14.4375 11.8125C15.0588 11.8125 15.5625 11.3088 15.5625 10.6875V5.97082C15.5625 5.51998 15.5625 5.29456 15.4981 5.08198C15.4338 4.86941 15.3087 4.68185 15.0586 4.30673L14.4785 3.43654C14.2187 3.04667 13.781 2.8125 13.3125 2.8125" stroke="#9100E6" stroke-width="1.125" stroke-linecap="round" stroke-linejoin="round"/>
</svg>
