<svg width="26" height="20" viewBox="0 0 26 20" fill="none" xmlns="http://www.w3.org/2000/svg">
<path d="M6.10938 19.4922V9.50781L0.34375 5.07812V17.3828C0.34375 18.7891 1.04688 19.4922 2.45312 19.4922" fill="#4285F4"/>
<path d="M5.82812 9.4375L13 14.8516L20.1719 9.4375V2.54688L13 7.96094L5.82812 2.54688" fill="#EA4335"/>
<path d="M19.8906 19.4922V9.50781L25.6562 5.07812V17.3828C25.6562 18.7891 24.9531 19.4922 23.5469 19.4922" fill="#34A853"/>
<path d="M0.34375 5.21735L6.10938 9.64703V2.75641L4 1.13922C2.10156 -0.33734 0.34375 1.13922 0.34375 2.96735" fill="#C5221F"/>
<path d="M25.6562 5.21735L19.8906 9.64703V2.75641L22 1.13922C23.8984 -0.33734 25.6562 1.13922 25.6562 2.96735" fill="#FBBC04"/>
</svg>
