<svg width="30" height="30" viewBox="0 0 30 30" fill="none" xmlns="http://www.w3.org/2000/svg">
<g clip-path="url(#clip0_6181_2264)">
<path d="M18.0763 0.489006C16.1087 -0.136818 13.9995 -0.163743 12.0166 0.411653C10.0336 0.987048 8.26645 2.1388 6.93945 3.72063L11.8706 7.86638L18.0763 0.489006Z" fill="#1A73E8"/>
<path d="M6.93858 3.7207C5.36388 5.5959 4.50207 7.96702 4.50521 10.4157C4.47962 12.1278 4.83128 13.8245 5.53521 15.3855L11.8697 7.86645L6.93858 3.7207Z" fill="#EA4335"/>
<path d="M14.9205 6.43738C15.444 6.43569 15.9628 6.53734 16.4469 6.73651C16.9311 6.93568 17.3712 7.22846 17.742 7.59806C18.1128 7.96765 18.407 8.4068 18.6077 8.89032C18.8084 9.37384 18.9118 9.89222 18.9118 10.4158C18.9132 11.3606 18.5751 12.2744 17.959 12.9908L24.1648 5.61338C22.8951 3.15943 20.7056 1.30787 18.0749 0.463379L11.8691 7.8665C12.241 7.41817 12.7074 7.05757 13.2349 6.81051C13.7624 6.56345 14.338 6.43603 14.9205 6.43738Z" fill="#4285F4"/>
<path d="M14.921 14.4071C13.8625 14.4071 12.8473 13.9866 12.0988 13.2381C11.3503 12.4896 10.9298 11.4744 10.9298 10.4158C10.9259 9.47285 11.2592 8.55956 11.8697 7.84082L5.53516 15.3856C6.85276 17.8081 8.43769 20.0754 10.2603 22.1449L17.9853 12.9908C17.6108 13.4385 17.1418 13.7976 16.612 14.0425C16.0821 14.2874 15.5047 14.4119 14.921 14.4071Z" fill="#FBBC04"/>
<path d="M17.8193 24.6424C21.2956 19.2091 25.3383 16.7371 25.3383 10.4799C25.3383 8.80831 24.9365 7.16125 24.1667 5.67749L10.2617 22.1446C10.854 22.9171 11.4462 23.7411 12.0256 24.6424C14.15 27.9126 13.5577 29.8696 14.9225 29.8696C16.2872 29.8696 15.695 27.9126 17.8193 24.6424Z" fill="#34A853"/>
</g>
<defs>
<clipPath id="clip0_6181_2264">
<rect width="30" height="30" fill="white"/>
</clipPath>
</defs>
</svg>
