<svg width="12" height="12" viewBox="0 0 12 12" fill="none" xmlns="http://www.w3.org/2000/svg">
<path d="M0 5.931V7.5C0 9.56237 -1.5729e-07 10.5936 0.676301 11.2343C1.3526 11.875 2.44108 11.875 4.61806 11.875H7.25694C9.4339 11.875 10.5224 11.875 11.1987 11.2343C11.875 10.5936 11.875 9.56237 11.875 7.5V5.931C11.875 4.88019 11.875 4.35483 11.6402 3.90003C11.4054 3.44523 10.9677 3.12267 10.0922 2.47757L8.77272 1.50534C7.41073 0.501781 6.72976 0 5.9375 0C5.14524 0 4.46427 0.501781 3.10229 1.50534L1.78284 2.47757C0.907336 3.12267 0.469584 3.44523 0.234795 3.90003C3.93225e-08 4.35483 0 4.88019 0 5.931Z" fill="#E765FF"/>
<path d="M9.5 8.3125H8.3125V9.5H9.5V8.3125Z" stroke="#F5E8FB" stroke-width="1.58333" stroke-linejoin="round"/>
</svg>
