<svg width="18" height="20" viewBox="0 0 18 20" fill="none" xmlns="http://www.w3.org/2000/svg">
<path d="M4 0C3.3125 0 2.75 0.5625 2.75 1.25V18.75C2.75 19.4375 3.3125 20 4 20H16.5C17.1875 20 17.75 19.4375 17.75 18.75V5L12.75 0H4Z" fill="#E2E5E7"/>
<path d="M14 5H17.75L12.75 0V3.75C12.75 4.4375 13.3125 5 14 5Z" fill="#B0B7BD"/>
<path d="M17.75 8.75L14 5H17.75V8.75Z" fill="#CAD1D8"/>
<path d="M15.25 16.25C15.25 16.5938 14.9688 16.875 14.625 16.875H0.875C0.53125 16.875 0.25 16.5938 0.25 16.25V10C0.25 9.65625 0.53125 9.375 0.875 9.375H14.625C14.9688 9.375 15.25 9.65625 15.25 10V16.25Z" fill="#D5CE00"/>
<path d="M14.625 16.875H2.75V17.5H14.625C14.9688 17.5 15.25 17.2188 15.25 16.875V16.25C15.25 16.5938 14.9688 16.875 14.625 16.875Z" fill="#CAD1D8"/>
<path d="M3.71484 15.0088C3.57422 15.0088 3.50391 14.9707 3.50391 14.8945V11.458C3.50391 11.3799 3.57422 11.3408 3.71484 11.3408H3.75586C3.89453 11.3408 3.96387 11.3799 3.96387 11.458V14.8945C3.96387 14.9707 3.89453 15.0088 3.75586 15.0088H3.71484ZM5.15039 15.0088C5.07617 15.0088 5.02246 15 4.98926 14.9824C4.95605 14.9629 4.93945 14.9336 4.93945 14.8945V11.458C4.93945 11.3799 5.00977 11.3408 5.15039 11.3408H5.33496C5.4502 11.3408 5.52344 11.373 5.55469 11.4375L6.53906 13.1455L6.67383 13.4736L6.80859 13.1748L7.7959 11.4375C7.8291 11.373 7.90137 11.3408 8.0127 11.3408H8.18555C8.32422 11.3408 8.39355 11.3799 8.39355 11.458V14.8945C8.39355 14.9707 8.32422 15.0088 8.18555 15.0088H8.15039C8.07617 15.0088 8.02246 15 7.98926 14.9824C7.95605 14.9629 7.93945 14.9336 7.93945 14.8945V12.0908L7.93066 12.1143L6.89355 13.916C6.87988 13.9395 6.86426 13.957 6.84668 13.9688C6.8291 13.9785 6.80664 13.9834 6.7793 13.9834H6.57129C6.51855 13.9834 6.47949 13.9609 6.4541 13.916L5.39355 12.0615V14.8945C5.39355 14.9707 5.32422 15.0088 5.18555 15.0088H5.15039ZM10.7637 15.0293C10.2402 15.0293 9.8418 14.8789 9.56836 14.5781C9.29492 14.2754 9.1582 13.8184 9.1582 13.207C9.1582 11.9492 9.71973 11.3203 10.8428 11.3203C11.0068 11.3203 11.166 11.3379 11.3203 11.373C11.4746 11.4062 11.5996 11.4482 11.6953 11.499C11.791 11.5498 11.8389 11.5986 11.8389 11.6455C11.8389 11.6748 11.8281 11.7139 11.8066 11.7627C11.7871 11.8115 11.7637 11.8545 11.7363 11.8916C11.709 11.9287 11.6846 11.9473 11.6631 11.9473C11.6533 11.9473 11.626 11.9346 11.5811 11.9092C11.4795 11.8545 11.373 11.8086 11.2617 11.7715C11.1504 11.7344 11.0146 11.7158 10.8545 11.7158C10.4131 11.7158 10.0986 11.8379 9.91113 12.082C9.72363 12.3242 9.62988 12.6836 9.62988 13.1602C9.62988 13.6094 9.7168 13.9678 9.89062 14.2354C10.0664 14.501 10.3691 14.6338 10.7988 14.6338C10.9297 14.6338 11.0557 14.6279 11.1768 14.6162C11.2998 14.6025 11.3975 14.5859 11.4697 14.5664V13.5146H10.8604C10.8232 13.5146 10.7959 13.5029 10.7783 13.4795C10.7627 13.4541 10.7549 13.4141 10.7549 13.3594V13.2744C10.7549 13.2197 10.7627 13.1807 10.7783 13.1572C10.7959 13.1318 10.8232 13.1191 10.8604 13.1191H11.7715C11.8262 13.1191 11.8662 13.1318 11.8916 13.1572C11.917 13.1807 11.9297 13.2197 11.9297 13.2744V14.6543C11.9297 14.7891 11.8203 14.8857 11.6016 14.9443C11.3828 15.001 11.1035 15.0293 10.7637 15.0293Z" fill="white"/>
</svg>
