<svg width="20" height="20" viewBox="0 0 20 20" fill="none" xmlns="http://www.w3.org/2000/svg">
<path d="M3.33398 15.5356V6.70928C3.33398 4.33094 3.33398 3.14177 4.06622 2.40292C4.79845 1.66406 5.97696 1.66406 8.33398 1.66406H11.6673C14.0243 1.66406 15.2028 1.66406 15.9351 2.40292C16.6673 3.14177 16.6673 4.33094 16.6673 6.70928V15.5356C16.6673 16.7953 16.6673 17.4251 16.2823 17.6731C15.6532 18.0783 14.6807 17.2286 14.1916 16.9201C13.7874 16.6652 13.5854 16.5378 13.3611 16.5305C13.1187 16.5225 12.9131 16.6447 12.4764 16.9201L10.884 17.9244C10.4544 18.1952 10.2397 18.3307 10.0007 18.3307C9.76165 18.3307 9.5469 18.1952 9.11732 17.9244L7.52493 16.9201C7.12078 16.6652 6.9187 16.5378 6.69443 16.5305C6.45208 16.5225 6.24643 16.6447 5.80971 16.9201C5.32061 17.2286 4.34804 18.0783 3.71894 17.6731C3.33398 17.4251 3.33398 16.7953 3.33398 15.5356Z" stroke="#35383F" stroke-width="1.25" stroke-linecap="round" stroke-linejoin="round"/>
<path d="M9.16602 9.16406H6.66602" stroke="#35383F" stroke-width="1.25" stroke-linecap="round" stroke-linejoin="round"/>
<path d="M11.666 5.83594H6.66602" stroke="#35383F" stroke-width="1.25" stroke-linecap="round" stroke-linejoin="round"/>
</svg>
