<svg width="20" height="20" viewBox="0 0 20 20" fill="none" xmlns="http://www.w3.org/2000/svg">
<path d="M16.68 1.66797C15.7522 1.66797 15 3.90654 15 6.66797H16.68C17.4897 6.66797 17.8945 6.66797 18.1451 6.38843C18.3957 6.10888 18.3521 5.74074 18.2648 5.00448C18.0345 3.06083 17.4119 1.66797 16.68 1.66797Z" fill="#4E0083" stroke="url(#paint0_linear_5379_9170)" stroke-width="1.25"/>
<path d="M14.9998 6.71319V15.5395C14.9998 16.7992 14.9998 17.4291 14.6148 17.677C13.9858 18.0822 13.0133 17.2325 12.5241 16.9241C12.1199 16.6691 11.9179 16.5417 11.6936 16.5344C11.4513 16.5264 11.2456 16.6486 10.8089 16.9241L9.2165 17.9283C8.78692 18.1991 8.57217 18.3346 8.33317 18.3346C8.09418 18.3346 7.87939 18.1991 7.44984 17.9283L5.85745 16.9241C5.4533 16.6691 5.25122 16.5417 5.02695 16.5344C4.7846 16.5264 4.57895 16.6486 4.14223 16.9241C3.65313 17.2325 2.68056 18.0822 2.05146 17.677C1.6665 17.4291 1.6665 16.7992 1.6665 15.5395V6.71319C1.6665 4.33484 1.6665 3.14568 2.39874 2.40683C3.13097 1.66797 4.30948 1.66797 6.6665 1.66797H16.6665" fill="url(#paint1_linear_5379_9170)"/>
<path d="M14.9998 6.71319V15.5395C14.9998 16.7992 14.9998 17.4291 14.6148 17.677C13.9858 18.0822 13.0133 17.2325 12.5241 16.9241C12.1199 16.6691 11.9179 16.5417 11.6936 16.5344C11.4513 16.5264 11.2456 16.6486 10.8089 16.9241L9.2165 17.9283C8.78692 18.1991 8.57217 18.3346 8.33317 18.3346C8.09418 18.3346 7.87939 18.1991 7.44984 17.9283L5.85745 16.9241C5.4533 16.6691 5.25122 16.5417 5.02695 16.5344C4.7846 16.5264 4.57895 16.6486 4.14223 16.9241C3.65313 17.2325 2.68056 18.0822 2.05146 17.677C1.6665 17.4291 1.6665 16.7992 1.6665 15.5395V6.71319C1.6665 4.33484 1.6665 3.14568 2.39874 2.40683C3.13097 1.66797 4.30948 1.66797 6.6665 1.66797H16.6665" stroke="url(#paint2_linear_5379_9170)" stroke-width="1.25" stroke-linecap="round" stroke-linejoin="round"/>
<path d="M5 5H11.6667" stroke="white" stroke-width="1.25" stroke-linecap="round" stroke-linejoin="round"/>
<path d="M8 8H5" stroke="white" stroke-width="1.25" stroke-linecap="round" stroke-linejoin="round"/>
<defs>
<linearGradient id="paint0_linear_5379_9170" x1="15" y1="4.16797" x2="18.3333" y2="4.16797" gradientUnits="userSpaceOnUse">
<stop stop-color="#962FD2"/>
<stop offset="1" stop-color="#564DCE"/>
</linearGradient>
<linearGradient id="paint1_linear_5379_9170" x1="1.6665" y1="10.0013" x2="16.6665" y2="10.0013" gradientUnits="userSpaceOnUse">
<stop stop-color="#962FD2"/>
<stop offset="1" stop-color="#564DCE"/>
</linearGradient>
<linearGradient id="paint2_linear_5379_9170" x1="1.6665" y1="10.0013" x2="16.6665" y2="10.0013" gradientUnits="userSpaceOnUse">
<stop stop-color="#962FD2"/>
<stop offset="1" stop-color="#564DCE"/>
</linearGradient>
</defs>
</svg>
