<svg width="18" height="18" viewBox="0 0 18 18" fill="none" xmlns="http://www.w3.org/2000/svg">
<path d="M2.99805 13.9834V6.03972C2.99805 3.89921 2.99805 2.82896 3.65706 2.164C4.31607 1.49902 5.37672 1.49902 7.49805 1.49902H10.498C12.6193 1.49902 13.68 1.49902 14.339 2.164C14.998 2.82896 14.998 3.89921 14.998 6.03972V13.9834C14.998 15.1171 14.998 15.684 14.6515 15.9071C14.0854 16.2718 13.2101 15.5071 12.7699 15.2295C12.4061 15.0001 12.2243 14.8854 12.0224 14.8788C11.8043 14.8716 11.6192 14.9816 11.2262 15.2295L9.79305 16.1333C9.40642 16.3771 9.21315 16.499 8.99805 16.499C8.78295 16.499 8.58967 16.3771 8.20305 16.1333L6.76989 15.2295C6.40616 15.0001 6.22429 14.8854 6.02244 14.8788C5.80434 14.8716 5.61924 14.9816 5.2262 15.2295C4.78601 15.5071 3.9107 16.2718 3.34451 15.9071C2.99805 15.684 2.99805 15.1171 2.99805 13.9834Z" stroke="#AA1AFF" stroke-width="1.125" stroke-linecap="round" stroke-linejoin="round"/>
<path d="M8.25195 8.24902H6.00195" stroke="#AA1AFF" stroke-width="1.125" stroke-linecap="round" stroke-linejoin="round"/>
<path d="M10.502 5.25098H6.00195" stroke="#AA1AFF" stroke-width="1.125" stroke-linecap="round" stroke-linejoin="round"/>
</svg>
