<svg width="26" height="26" viewBox="0 0 26 26" fill="none" xmlns="http://www.w3.org/2000/svg">
<g clip-path="url(#clip0_4696_33152)">
<path d="M6.5 0C5.60625 0 4.875 0.73125 4.875 1.625V24.375C4.875 25.2687 5.60625 26 6.5 26H22.75C23.6437 26 24.375 25.2687 24.375 24.375V6.5L17.875 0H6.5Z" fill="#E2E5E7"/>
<path d="M19.5 6.5H24.375L17.875 0V4.875C17.875 5.76875 18.6062 6.5 19.5 6.5Z" fill="#B0B7BD"/>
<path d="M24.375 11.375L19.5 6.5H24.375V11.375Z" fill="#CAD1D8"/>
<path d="M21.125 21.125C21.125 21.5719 20.7594 21.9375 20.3125 21.9375H2.4375C1.99062 21.9375 1.625 21.5719 1.625 21.125V13C1.625 12.5531 1.99062 12.1875 2.4375 12.1875H20.3125C20.7594 12.1875 21.125 12.5531 21.125 13V21.125Z" fill="#50BEE8"/>
<path d="M7.20886 15.3944C7.20886 14.8484 8.06686 14.8484 8.06686 15.3944V17.9602C8.06686 18.9807 7.57936 19.5982 6.45567 19.5982C5.90317 19.5982 5.44249 19.4479 5.03949 18.9287C4.70799 18.5322 5.33199 17.9611 5.66999 18.3762C5.94299 18.7142 6.23549 18.7922 6.52067 18.7792C6.88386 18.7662 7.20317 18.6029 7.20967 17.9602V15.3944H7.20886Z" fill="white"/>
<path d="M9.20898 15.3945C9.20898 15.18 9.37798 14.946 9.65098 14.946H11.1517C11.9967 14.946 12.7572 15.5115 12.7572 16.5954C12.7572 17.6224 11.9967 18.1944 11.1517 18.1944H10.067V19.0524C10.067 19.3384 9.88498 19.5001 9.65098 19.5001C9.43648 19.5001 9.20898 19.3384 9.20898 19.0524V15.3945ZM10.067 15.7642V17.3827H11.1517C11.5872 17.3827 11.9317 16.9984 11.9317 16.5954C11.9317 16.1412 11.5872 15.7642 11.1517 15.7642H10.067Z" fill="white"/>
<path d="M17.3957 19.0004C16.9342 19.3839 16.3687 19.5464 15.7975 19.5464C14.4325 19.5464 13.4648 18.7672 13.4648 17.2202C13.4648 15.9088 14.4853 14.8892 15.8552 14.8892C16.3687 14.8892 16.9334 15.0638 17.3364 15.4603C17.7321 15.8495 17.1609 16.428 16.7717 16.0843C16.5312 15.8503 16.1932 15.6748 15.8552 15.6748C15.0695 15.6748 14.3098 16.3045 14.3098 17.2202C14.3098 18.1822 14.946 18.7672 15.7975 18.7672C16.1932 18.7672 16.5312 18.6494 16.7717 18.4747V17.676H15.7975C15.219 17.676 15.2775 16.883 15.7975 16.883H17.0967C17.3372 16.883 17.5574 17.065 17.5574 17.2665V18.6502C17.5574 18.7672 17.5062 18.8761 17.3957 19.0004Z" fill="white"/>
<path d="M20.3125 21.9375H4.875V22.75H20.3125C20.7594 22.75 21.125 22.3844 21.125 21.9375V21.125C21.125 21.5719 20.7594 21.9375 20.3125 21.9375Z" fill="#CAD1D8"/>
</g>
<defs>
<clipPath id="clip0_4696_33152">
<rect width="26" height="26" fill="white"/>
</clipPath>
</defs>
</svg>
