<svg width="12" height="15" viewBox="0 0 12 15" fill="none" xmlns="http://www.w3.org/2000/svg">
<path d="M0.67854 11.7299C0.82846 12.8434 1.75075 13.7157 2.87311 13.7673C3.81751 13.8107 4.77687 13.8334 5.83333 13.8334C6.8898 13.8334 7.84913 13.8107 8.79353 13.7673C9.91593 13.7157 10.8382 12.8434 10.9881 11.7299C11.086 11.0032 11.1667 10.2585 11.1667 9.50008C11.1667 8.74168 11.086 7.99695 10.9881 7.27028C10.8382 6.15675 9.91593 5.28441 8.79353 5.23281C7.84913 5.18939 6.8898 5.16675 5.83333 5.16675C4.77687 5.16675 3.81751 5.18939 2.87311 5.23281C1.75075 5.28441 0.82846 6.15675 0.67854 7.27028C0.5807 7.99695 0.5 8.74168 0.5 9.50008C0.5 10.2585 0.5807 11.0032 0.67854 11.7299Z" fill="#71747C" stroke="#71747C"/>
<path d="M2.83398 5.16667V3.5C2.83398 1.84315 4.17713 0.5 5.83398 0.5C7.49085 0.5 8.83398 1.84315 8.83398 3.5V5.16667" stroke="#71747C" stroke-linecap="round" stroke-linejoin="round"/>
<path d="M8.5 9.49341V9.50008" stroke="white" stroke-width="1.33333" stroke-linecap="round" stroke-linejoin="round"/>
<path d="M5.83398 9.49341V9.50008" stroke="white" stroke-width="1.33333" stroke-linecap="round" stroke-linejoin="round"/>
<path d="M3.16797 9.49341V9.50008" stroke="white" stroke-width="1.33333" stroke-linecap="round" stroke-linejoin="round"/>
</svg>
