<svg width="20" height="20" viewBox="0 0 20 20" fill="none" xmlns="http://www.w3.org/2000/svg">
<path d="M10.8327 9.16536C10.8327 7.32441 9.34027 5.83203 7.49935 5.83203C5.6584 5.83203 4.16602 7.32441 4.16602 9.16536C4.16602 11.0063 5.6584 12.4987 7.49935 12.4987C9.34027 12.4987 10.8327 11.0063 10.8327 9.16536Z" stroke="#9100E6" stroke-width="1.25" stroke-linecap="round" stroke-linejoin="round"/>
<path d="M9.19818 6.29811C9.17693 6.14623 9.16602 5.99106 9.16602 5.83333C9.16602 3.99238 10.6584 2.5 12.4993 2.5C14.3403 2.5 15.8327 3.99238 15.8327 5.83333C15.8327 7.67428 14.3403 9.16667 12.4993 9.16667C11.8788 9.16667 11.298 8.99717 10.8005 8.70192" stroke="#9100E6" stroke-width="1.25" stroke-linecap="round" stroke-linejoin="round"/>
<path d="M12.5 17.5C12.5 14.7386 10.2614 12.5 7.5 12.5C4.73857 12.5 2.5 14.7386 2.5 17.5" stroke="#9100E6" stroke-width="1.25" stroke-linecap="round" stroke-linejoin="round"/>
<path d="M17.5 14.168C17.5 11.4066 15.2614 9.16797 12.5 9.16797" stroke="#9100E6" stroke-width="1.25" stroke-linecap="round" stroke-linejoin="round"/>
</svg>
