<svg width="26" height="26" viewBox="0 0 26 26" fill="none" xmlns="http://www.w3.org/2000/svg">
<path d="M6.5 0C5.60625 0 4.875 0.73125 4.875 1.625V24.375C4.875 25.2687 5.60625 26 6.5 26H22.75C23.6437 26 24.375 25.2687 24.375 24.375V6.5L17.875 0H6.5Z" fill="#E2E5E7"/>
<path d="M19.5 6.5H24.375L17.875 0V4.875C17.875 5.76875 18.6062 6.5 19.5 6.5Z" fill="#B0B7BD"/>
<path d="M24.375 11.375L19.5 6.5H24.375V11.375Z" fill="#CAD1D8"/>
<path d="M21.125 21.125C21.125 21.5719 20.7594 21.9375 20.3125 21.9375H2.4375C1.99062 21.9375 1.625 21.5719 1.625 21.125V13C1.625 12.5531 1.99062 12.1875 2.4375 12.1875H20.3125C20.7594 12.1875 21.125 12.5531 21.125 13V21.125Z" fill="#F15642"/>
<path d="M5.16699 15.3943C5.16699 15.1798 5.33599 14.9458 5.60818 14.9458H7.10887C7.95387 14.9458 8.71437 15.5113 8.71437 16.5952C8.71437 17.6222 7.95387 18.1942 7.10887 18.1942H6.02418V19.0522C6.02418 19.3382 5.84218 19.4999 5.60818 19.4999C5.39368 19.4999 5.16699 19.3382 5.16699 19.0522V15.3943ZM6.02418 15.764V17.3825H7.10887C7.54437 17.3825 7.88887 16.9982 7.88887 16.5952C7.88887 16.141 7.54437 15.764 7.10887 15.764H6.02418Z" fill="white"/>
<path d="M9.98659 19.4999C9.77209 19.4999 9.53809 19.3829 9.53809 19.0977V15.4073C9.53809 15.1741 9.77209 15.0043 9.98659 15.0043H11.4743C14.4431 15.0043 14.3781 19.4999 11.5328 19.4999H9.98659ZM10.3961 15.7973V18.7077H11.4743C13.2285 18.7077 13.3065 15.7973 11.4743 15.7973H10.3961Z" fill="white"/>
<path d="M15.4309 15.8493V16.882H17.0876C17.3216 16.882 17.5556 17.116 17.5556 17.3427C17.5556 17.5572 17.3216 17.7327 17.0876 17.7327H15.4309V19.0969C15.4309 19.3244 15.2692 19.4991 15.0417 19.4991C14.7557 19.4991 14.5811 19.3244 14.5811 19.0969V15.4065C14.5811 15.1733 14.7566 15.0035 15.0417 15.0035H17.3224C17.6084 15.0035 17.7774 15.1733 17.7774 15.4065C17.7774 15.6145 17.6084 15.8485 17.3224 15.8485H15.4309V15.8493Z" fill="white"/>
<path d="M20.3125 21.9375H4.875V22.75H20.3125C20.7594 22.75 21.125 22.3844 21.125 21.9375V21.125C21.125 21.5719 20.7594 21.9375 20.3125 21.9375Z" fill="#CAD1D8"/>
</svg>
