<svg width="18" height="18" viewBox="0 0 18 18" fill="none" xmlns="http://www.w3.org/2000/svg">
<path d="M11.4106 4.48679L12.4619 3.43547C13.0425 2.85484 13.9839 2.85484 14.5645 3.43547C15.1451 4.0161 15.1451 4.95748 14.5645 5.53811L13.5132 6.58943M11.4106 4.48679L5.23517 10.6622C4.4512 11.4462 4.05919 11.8381 3.79228 12.3158C3.52535 12.7935 3.2568 13.9214 3 15C4.07857 14.7432 5.20649 14.4746 5.68417 14.2077C6.16184 13.9408 6.55383 13.5488 7.33781 12.7648L13.5132 6.58943M11.4106 4.48679L13.5132 6.58943" stroke="url(#paint0_linear_4696_33588)" stroke-width="1.125" stroke-linecap="round" stroke-linejoin="round"/>
<path d="M8.25 15H12.75" stroke="url(#paint1_linear_4696_33588)" stroke-width="1.125" stroke-linecap="round"/>
<defs>
<linearGradient id="paint0_linear_4696_33588" x1="3" y1="9" x2="15" y2="9" gradientUnits="userSpaceOnUse">
<stop stop-color="#962FD2"/>
<stop offset="1" stop-color="#564DCE"/>
</linearGradient>
<linearGradient id="paint1_linear_4696_33588" x1="8.25" y1="15.5" x2="12.75" y2="15.5" gradientUnits="userSpaceOnUse">
<stop stop-color="#962FD2"/>
<stop offset="1" stop-color="#564DCE"/>
</linearGradient>
</defs>
</svg>
