<svg width="20" height="20" viewBox="0 0 20 20" fill="none" xmlns="http://www.w3.org/2000/svg">
<path d="M15.425 17.0125L13.625 8.8125L17.125 5.3125C18.625 3.8125 19.125 1.8125 18.625 0.8125C17.625 0.3125 15.625 0.8125 14.125 2.3125L10.625 5.8125L2.425 4.0125C1.925 3.9125 1.525 4.1125 1.325 4.5125L1.025 5.0125C0.825004 5.5125 0.925004 6.0125 1.325 6.3125L6.625 9.8125L4.625 12.8125H1.625L0.625004 13.8125L3.625 15.8125L5.625 18.8125L6.625 17.8125V14.8125L9.625 12.8125L13.125 18.1125C13.425 18.5125 13.925 18.6125 14.425 18.4125L14.925 18.2125C15.325 17.9125 15.525 17.5125 15.425 17.0125Z" stroke="#9100E6" stroke-width="1.25" stroke-linecap="round" stroke-linejoin="round"/>
</svg>
