<svg width="20" height="20" viewBox="0 0 20 20" fill="none" xmlns="http://www.w3.org/2000/svg">
<path d="M2.08398 9.99967C2.08398 6.26772 2.08398 4.40175 3.24335 3.24237C4.40272 2.08301 6.26869 2.08301 10.0006 2.08301C13.7326 2.08301 15.5986 2.08301 16.758 3.24237C17.9173 4.40175 17.9173 6.26772 17.9173 9.99967C17.9173 13.7317 17.9173 15.5976 16.758 16.757C15.5986 17.9163 13.7326 17.9163 10.0006 17.9163C6.26869 17.9163 4.40272 17.9163 3.24335 16.757C2.08398 15.5976 2.08398 13.7317 2.08398 9.99967Z" stroke="#35383F" stroke-width="1.25"/>
<path d="M2.08398 6.66699H17.9173" stroke="#35383F" stroke-width="1.25" stroke-linejoin="round"/>
<path d="M9.16732 14.167H14.1673M5.83398 14.167H6.66732" stroke="#35383F" stroke-width="1.25" stroke-linecap="round" stroke-linejoin="round"/>
<path d="M9.16732 10.833H14.1673M5.83398 10.833H6.66732" stroke="#35383F" stroke-width="1.25" stroke-linecap="round" stroke-linejoin="round"/>
</svg>
