<svg width="20" height="20" viewBox="0 0 20 20" fill="none" xmlns="http://www.w3.org/2000/svg">
<path d="M2.08398 9.99869C2.08398 6.26675 2.08398 4.40077 3.24335 3.2414C4.40272 2.08203 6.26869 2.08203 10.0006 2.08203C13.7326 2.08203 15.5986 2.08203 16.758 3.2414C17.9173 4.40077 17.9173 6.26675 17.9173 9.99869C17.9173 13.7307 17.9173 15.5966 16.758 16.756C15.5986 17.9154 13.7326 17.9154 10.0006 17.9154C6.26869 17.9154 4.40272 17.9154 3.24335 16.756C2.08398 15.5966 2.08398 13.7307 2.08398 9.99869Z" fill="#9100E6" stroke="#9100E6" stroke-width="1.25"/>
<rect x="2" y="7" width="16" height="11" fill="white"/>
<path d="M2.08398 9.99869C2.08398 6.26675 2.08398 4.40077 3.24335 3.2414C4.40272 2.08203 6.26869 2.08203 10.0006 2.08203C13.7326 2.08203 15.5986 2.08203 16.758 3.2414C17.9173 4.40077 17.9173 6.26675 17.9173 9.99869C17.9173 13.7307 17.9173 15.5966 16.758 16.756C15.5986 17.9154 13.7326 17.9154 10.0006 17.9154C6.26869 17.9154 4.40272 17.9154 3.24335 16.756C2.08398 15.5966 2.08398 13.7307 2.08398 9.99869Z" stroke="#9100E6" stroke-width="1.25"/>
<path d="M2.08398 6.66797H17.9173" stroke="#9100E6" stroke-width="1.25" stroke-linejoin="round"/>
<path d="M9.16732 14.168H14.1673M5.83398 14.168H6.66732" stroke="#9100E6" stroke-width="1.25" stroke-linecap="round" stroke-linejoin="round"/>
<path d="M9.16732 10.832H14.1673M5.83398 10.832H6.66732" stroke="#9100E6" stroke-width="1.25" stroke-linecap="round" stroke-linejoin="round"/>
</svg>
