<svg width="11" height="12" viewBox="0 0 11 12" fill="none" xmlns="http://www.w3.org/2000/svg">
<path d="M5.45669 1.56979C8.107 0.601749 9.43213 0.11773 10.1449 0.881387C10.8576 1.64504 10.4059 3.06486 9.50241 5.90447L8.88711 7.83819C8.19327 10.019 7.84632 11.1094 7.27438 11.1996C7.12066 11.2239 6.96151 11.2093 6.80935 11.157C6.24357 10.9624 5.94447 9.81266 5.34628 7.51333C5.2136 7.00331 5.14727 6.74827 4.99616 6.55348C4.95231 6.49698 4.90368 6.44488 4.85094 6.39789C4.66914 6.236 4.4311 6.16492 3.95512 6.02277C1.80905 5.38184 0.736022 5.06138 0.554365 4.45517C0.505525 4.29218 0.491897 4.12166 0.51454 3.95692C0.598763 3.34417 1.61647 2.97244 3.65188 2.229L5.45669 1.56979Z" stroke="white" stroke-width="1.01111"/>
</svg>
