<svg width="31" height="34" viewBox="0 0 31 34" fill="none" xmlns="http://www.w3.org/2000/svg">
<path d="M14.5312 21.8125C19.45 21.8125 23.4375 17.825 23.4375 12.9062C23.4375 7.98746 19.45 4 14.5312 4C9.61246 4 5.625 7.98746 5.625 12.9062C5.625 17.825 9.61246 21.8125 14.5312 21.8125Z" fill="url(#paint0_linear_3296_3453)"/>
<path d="M22.5 25.5625C26.6421 25.5625 30 22.2046 30 18.0625C30 13.9204 26.6421 10.5625 22.5 10.5625C18.3579 10.5625 15 13.9204 15 18.0625C15 22.2046 18.3579 25.5625 22.5 25.5625Z" fill="url(#paint1_linear_3296_3453)"/>
<mask id="mask0_3296_3453" style="mask-type:alpha" maskUnits="userSpaceOnUse" x="9" y="7" width="13" height="24">
<path d="M21.5625 24.1562C21.5625 27.5218 18.8343 30.25 15.4688 30.25C12.1032 30.25 9.375 27.5218 9.375 24.1562C9.375 20.7908 9.375 7.75 9.375 7.75H21.5625C21.5625 7.75 21.5625 21.9989 21.5625 24.1562Z" fill="#C4C4C4"/>
</mask>
<g mask="url(#mask0_3296_3453)">
<path d="M15.4688 30.25C18.8342 30.25 21.5625 27.5217 21.5625 24.1562C21.5625 20.7908 18.8342 18.0625 15.4688 18.0625C12.1033 18.0625 9.375 20.7908 9.375 24.1562C9.375 27.5217 12.1033 30.25 15.4688 30.25Z" fill="url(#paint2_linear_3296_3453)"/>
<path d="M6.5625 13.375C6.5625 11.8217 7.8217 10.5625 9.375 10.5625H15.9375C17.4908 10.5625 18.75 11.8217 18.75 13.375V24.625C18.75 26.1783 17.4908 27.4375 15.9375 27.4375H6.5625V13.375Z" fill="black" fill-opacity="0.3"/>
</g>
<path d="M15 8.6875H1.875C0.839466 8.6875 0 9.52697 0 10.5625V23.6875C0 24.723 0.839466 25.5625 1.875 25.5625H15C16.0355 25.5625 16.875 24.723 16.875 23.6875V10.5625C16.875 9.52697 16.0355 8.6875 15 8.6875Z" fill="url(#paint3_linear_3296_3453)"/>
<path d="M12.1875 19.1152C12.1875 17.6618 11.2127 17.0203 9.18436 16.2739C7.59631 15.6847 7.21895 15.5145 7.21895 14.9515C7.21895 14.467 7.69064 14.1396 8.49253 14.1396C9.31014 14.1396 10.0806 14.4146 10.9454 14.886L11.8259 13.3278C10.8982 12.7518 9.79753 12.4375 8.46109 12.4375C6.41706 12.4375 4.9548 13.485 4.9548 15.0824C4.9548 16.7191 6.11832 17.2428 8.068 17.9368C9.62456 18.4867 9.92334 18.7617 9.92334 19.2462C9.92334 19.8223 9.37303 20.1104 8.50825 20.1104C7.48624 20.1104 6.59002 19.7568 5.69379 19.1807L4.6875 20.6733C5.78813 21.4328 7.15605 21.8125 8.55543 21.8125C10.6624 21.8125 12.1875 20.8173 12.1875 19.1152Z" fill="white"/>
<defs>
<linearGradient id="paint0_linear_3296_3453" x1="5.625" y1="12.9062" x2="24.9218" y2="12.9062" gradientUnits="userSpaceOnUse">
<stop stop-color="#103A3B"/>
<stop offset="1" stop-color="#116B6E"/>
</linearGradient>
<linearGradient id="paint1_linear_3296_3453" x1="16.875" y1="14.3125" x2="30" y2="21.8125" gradientUnits="userSpaceOnUse">
<stop stop-color="#1D9097"/>
<stop offset="1" stop-color="#29BBC2"/>
</linearGradient>
<linearGradient id="paint2_linear_3296_3453" x1="11.25" y1="22.2812" x2="21.5625" y2="26.9687" gradientUnits="userSpaceOnUse">
<stop stop-color="#28A6B5"/>
<stop offset="1" stop-color="#31D6EC"/>
</linearGradient>
<linearGradient id="paint3_linear_3296_3453" x1="0" y1="17.125" x2="18.2812" y2="17.125" gradientUnits="userSpaceOnUse">
<stop stop-color="#105557"/>
<stop offset="1" stop-color="#116B6E"/>
</linearGradient>
</defs>
</svg>
