<svg width="88" height="88" viewBox="0 0 88 88" fill="none" xmlns="http://www.w3.org/2000/svg">
<path d="M44.001 2C46.5456 2.00012 48.8017 3.39384 51.4033 5.31055L52.541 6.16211C54.1613 7.38577 55.9315 8.73627 57.8076 9.58887L58.1846 9.75293C60.2999 10.6299 62.8324 10.9876 64.9561 11.2979C68.6364 11.8361 71.5747 12.3336 73.5137 14.123L73.6982 14.3008C75.3918 15.9935 75.9964 18.5089 76.4932 21.6562L76.7021 23.0439C77.0116 25.1695 77.3704 27.7005 78.2471 29.8154V29.8164C79.0825 31.8309 80.5328 33.7306 81.8369 35.459L81.8379 35.46C84.1795 38.5606 86 41.0921 86 44C85.9998 46.9077 84.1794 49.4386 81.8379 52.5391L81.8369 52.54C80.5327 54.2685 79.0825 56.1681 78.2471 58.1826V58.1836C77.3703 60.2986 77.0116 62.8297 76.7021 64.9551C76.1638 68.6357 75.6664 71.5747 73.876 73.5137L73.6982 73.6982C71.7635 75.633 68.7553 76.1454 64.9561 76.7012C62.8324 77.0116 60.2999 77.3692 58.1846 78.2461C56.1683 79.0816 54.2695 80.5314 52.541 81.8369C49.4398 84.1777 46.909 85.9989 44.001 85.999C41.0917 85.999 38.5613 84.1779 35.46 81.8369C33.731 80.5311 31.8318 79.0815 29.8174 78.2461C27.7019 77.369 25.1687 77.0115 23.0449 76.7012C19.2446 76.1456 16.2365 75.633 14.3018 73.6982C12.3671 71.7634 11.8531 68.754 11.2988 64.9561V64.9551C10.9885 62.8314 10.6309 60.2989 9.75391 58.1836V58.1826C8.91832 56.1679 7.46787 54.2681 6.16211 52.5391C3.82138 49.4379 2.0002 46.9076 2 44C2 41.092 3.82191 38.5607 6.16309 35.459L6.16211 35.458C7.46789 33.7291 8.91846 31.8308 9.75391 29.8164V29.8154C10.6309 27.7001 10.9885 25.1676 11.2988 23.0439V23.043C11.8531 19.2449 12.3671 16.2354 14.3018 14.3008C15.9947 12.6079 18.5093 12.0037 21.6572 11.5068L23.0449 11.2979C25.1688 10.9875 27.7019 10.63 29.8174 9.75293C31.8318 8.91749 33.7311 7.46777 35.46 6.16211C38.5614 3.82118 41.0916 2 44.001 2Z" stroke="#61D06A" stroke-width="4"/>
<path d="M58.1447 38.2366L42.0505 54.3308C41.3815 54.9998 40.2968 54.9998 39.6277 54.3308L29.5018 44.2048C28.8327 43.5358 28.8327 42.4511 29.5018 41.7821L31.9668 39.3171C32.6358 38.6481 33.7204 38.6481 34.3895 39.3171L40.8392 45.7668L53.257 33.3489C53.926 32.6799 55.0107 32.6799 55.6798 33.3489L58.1448 35.8139C58.8137 36.4829 58.8137 37.5676 58.1447 38.2366Z" fill="#61D06A"/>
</svg>
