<svg width="20" height="20" viewBox="0 0 20 20" fill="none" xmlns="http://www.w3.org/2000/svg">
<path d="M1.6665 12.5C1.78548 12.8562 1.92503 13.2026 2.08369 13.5377M3.43773 15.6219C3.70115 15.9281 3.984 16.2163 4.28431 16.4845M7.49984 18.3333C7.1267 18.2131 6.76401 18.0687 6.41351 17.9018" stroke="#35383F" stroke-width="1.25" stroke-linecap="round" stroke-linejoin="round"/>
<path d="M10 11.25C10.6903 11.25 11.25 10.6903 11.25 10C11.25 9.30967 10.6903 8.75 10 8.75C9.30967 8.75 8.75 9.30967 8.75 10M10 11.25C9.30967 11.25 8.75 10.6903 8.75 10M10 11.25V13.3333M8.75 10H5" stroke="#35383F" stroke-width="1.25" stroke-linecap="round"/>
<path d="M9.99984 18.3333C14.6022 18.3333 18.3332 14.6023 18.3332 10C18.3332 5.39763 14.6022 1.66667 9.99984 1.66667C5.39746 1.66667 1.6665 5.39763 1.6665 10" stroke="#35383F" stroke-width="1.25" stroke-linecap="round"/>
</svg>
