<svg width="20" height="20" viewBox="0 0 20 20" fill="none" xmlns="http://www.w3.org/2000/svg">
<path d="M5 0C4.3125 0 3.75 0.5625 3.75 1.25V18.75C3.75 19.4375 4.3125 20 5 20H17.5C18.1875 20 18.75 19.4375 18.75 18.75V5L13.75 0H5Z" fill="#E2E5E7"/>
<path d="M15 5H18.75L13.75 0V3.75C13.75 4.4375 14.3125 5 15 5Z" fill="#B0B7BD"/>
<path d="M18.75 8.75L15 5H18.75V8.75Z" fill="#CAD1D8"/>
<path d="M16.25 16.25C16.25 16.5938 15.9688 16.875 15.625 16.875H1.875C1.53125 16.875 1.25 16.5938 1.25 16.25V10C1.25 9.65625 1.53125 9.375 1.875 9.375H15.625C15.9688 9.375 16.25 9.65625 16.25 10V16.25Z" fill="#576D7E"/>
<path d="M5.185 12.1667H4.31062C3.87562 12.1667 3.87562 11.5273 4.31062 11.5273H6.67438C7.11937 11.5273 7.11937 12.1667 6.67438 12.1667H5.84438V14.6898C5.84438 15.1242 5.18438 15.1348 5.18438 14.6898V12.1667H5.185Z" fill="white"/>
<path d="M8.76117 12.7398L9.63117 11.6504C9.89117 11.3111 10.3955 11.7454 10.1112 12.0704C9.81117 12.4254 9.49679 12.8104 9.19617 13.2042L10.2162 14.4736C10.4905 14.8486 9.94117 15.2086 9.67117 14.8386L8.75179 13.6592L7.84742 14.8636C7.59242 15.2279 7.02742 14.8186 7.31304 14.4786L8.31679 13.2042C8.00242 12.8098 7.69742 12.4254 7.39242 12.0704C7.07742 11.6954 7.66242 11.3111 7.89179 11.6611L8.76117 12.7398Z" fill="white"/>
<path d="M11.6492 12.1667H10.7755C10.3405 12.1667 10.3405 11.5273 10.7755 11.5273H13.1386C13.5836 11.5273 13.5836 12.1667 13.1386 12.1667H12.3092V14.6898C12.3092 15.1242 11.6492 15.1348 11.6492 14.6898V12.1667Z" fill="white"/>
<path d="M15.625 16.875H3.75V17.5H15.625C15.9688 17.5 16.25 17.2188 16.25 16.875V16.25C16.25 16.5938 15.9688 16.875 15.625 16.875Z" fill="#CAD1D8"/>
</svg>
