<svg width="20" height="20" viewBox="0 0 20 20" fill="none" xmlns="http://www.w3.org/2000/svg">
<path d="M12.9173 8.74967C12.9173 7.13884 11.6115 5.83301 10.0007 5.83301C8.38982 5.83301 7.08398 7.13884 7.08398 8.74967C7.08398 10.3605 8.38982 11.6663 10.0007 11.6663C11.6115 11.6663 12.9173 10.3605 12.9173 8.74967Z" stroke="#9100E6" stroke-width="1.25" stroke-linecap="round" stroke-linejoin="round"/>
<path d="M18.3327 3.75033C18.3327 2.59973 17.3999 1.66699 16.2493 1.66699C15.0988 1.66699 14.166 2.59973 14.166 3.75033C14.166 4.90092 15.0988 5.83366 16.2493 5.83366C17.3999 5.83366 18.3327 4.90092 18.3327 3.75033Z" fill="#9100E6" stroke="#9100E6" stroke-width="1.25" stroke-linecap="round" stroke-linejoin="round"/>
<path d="M11.666 1.83369C11.1275 1.72438 10.5701 1.66699 9.99935 1.66699C5.39697 1.66699 1.66602 5.39795 1.66602 10.0003C1.66602 14.6027 5.39697 18.3337 9.99935 18.3337C14.6017 18.3337 18.3327 14.6027 18.3327 10.0003C18.3327 9.42958 18.2753 8.87216 18.166 8.33366" stroke="#9100E6" stroke-width="1.25" stroke-linecap="round" stroke-linejoin="round"/>
<path d="M15 16.667C15 13.9056 12.7614 11.667 10 11.667C7.23857 11.667 5 13.9056 5 16.667" stroke="#9100E6" stroke-width="1.25" stroke-linecap="round" stroke-linejoin="round"/>
</svg>
