<svg width="20" height="20" viewBox="0 0 20 20" fill="none" xmlns="http://www.w3.org/2000/svg">
<path d="M12.9173 8.75065C12.9173 7.13982 11.6115 5.83398 10.0007 5.83398C8.38982 5.83398 7.08398 7.13982 7.08398 8.75065C7.08398 10.3615 8.38982 11.6673 10.0007 11.6673C11.6115 11.6673 12.9173 10.3615 12.9173 8.75065Z" stroke="#35383F" stroke-width="1.25" stroke-linecap="round" stroke-linejoin="round"/>
<path d="M18.3327 3.74935C18.3327 2.59876 17.3999 1.66602 16.2493 1.66602C15.0988 1.66602 14.166 2.59876 14.166 3.74935C14.166 4.89994 15.0988 5.83268 16.2493 5.83268C17.3999 5.83268 18.3327 4.89994 18.3327 3.74935Z" stroke="#35383F" stroke-width="1.25" stroke-linecap="round" stroke-linejoin="round"/>
<path d="M11.666 1.83272C11.1275 1.7234 10.5701 1.66602 9.99935 1.66602C5.39697 1.66602 1.66602 5.39697 1.66602 9.99935C1.66602 14.6017 5.39697 18.3327 9.99935 18.3327C14.6017 18.3327 18.3327 14.6017 18.3327 9.99935C18.3327 9.4286 18.2753 8.87118 18.166 8.33268" stroke="#35383F" stroke-width="1.25" stroke-linecap="round" stroke-linejoin="round"/>
<path d="M15 16.666C15 13.9046 12.7614 11.666 10 11.666C7.23857 11.666 5 13.9046 5 16.666" stroke="#35383F" stroke-width="1.25" stroke-linecap="round" stroke-linejoin="round"/>
</svg>
