<svg width="14" height="14" viewBox="0 0 14 14" fill="none" xmlns="http://www.w3.org/2000/svg">
<path d="M12.5667 6.44227C12.744 6.69094 12.8327 6.81531 12.8327 6.99935C12.8327 7.18339 12.744 7.30776 12.5667 7.55643C11.7698 8.67387 9.73472 11.0827 6.99935 11.0827C4.26397 11.0827 2.22891 8.67387 1.43204 7.55643C1.25469 7.30776 1.16602 7.18339 1.16602 6.99935C1.16602 6.81531 1.25469 6.69094 1.43204 6.44227C2.22891 5.32486 4.26397 2.91602 6.99935 2.91602C9.73472 2.91602 11.7698 5.32486 12.5667 6.44227Z" stroke="#3B4351" stroke-width="0.875"/>
<path d="M8.75 7C8.75 6.03347 7.96652 5.25 7 5.25C6.03347 5.25 5.25 6.03347 5.25 7C5.25 7.96652 6.03347 8.75 7 8.75C7.96652 8.75 8.75 7.96652 8.75 7Z" stroke="#3B4351" stroke-width="0.875"/>
</svg>
