<svg width="43" height="43" viewBox="0 0 43 43" fill="none" xmlns="http://www.w3.org/2000/svg">
<path d="M3.96424 41.6562C1.74705 41.6562 0.739236 40.0437 1.74705 38.0952L19.6861 2.8218C20.6939 0.873364 22.3064 0.873364 23.3142 2.8218L41.2533 38.0952C42.2611 40.0437 41.2533 41.6562 39.0361 41.6562H3.96424Z" fill="#FFCE31"/>
<path d="M18.679 15.8561L20.5602 28.2858C20.7618 29.4952 22.3071 29.4952 22.5087 28.2858L24.3227 15.8561C24.6587 11.0186 18.343 11.0186 18.679 15.8561Z" fill="#231F20"/>
<path d="M21.4996 36.1468C23.0581 36.1468 24.3215 34.8834 24.3215 33.325C24.3215 31.7665 23.0581 30.5031 21.4996 30.5031C19.9411 30.5031 18.6777 31.7665 18.6777 33.325C18.6777 34.8834 19.9411 36.1468 21.4996 36.1468Z" fill="#231F20"/>
</svg>
