<svg width="20" height="20" viewBox="0 0 20 20" fill="none" xmlns="http://www.w3.org/2000/svg">
<path d="M5 0C4.3125 0 3.75 0.5625 3.75 1.25V18.75C3.75 19.4375 4.3125 20 5 20H17.5C18.1875 20 18.75 19.4375 18.75 18.75V5L13.75 0H5Z" fill="#E2E5E7"/>
<path d="M15 5H18.75L13.75 0V3.75C13.75 4.4375 14.3125 5 15 5Z" fill="#B0B7BD"/>
<path d="M18.75 8.75L15 5H18.75V8.75Z" fill="#CAD1D8"/>
<path d="M16.25 16.25C16.25 16.5938 15.9688 16.875 15.625 16.875H1.875C1.53125 16.875 1.25 16.5938 1.25 16.25V10C1.25 9.65625 1.53125 9.375 1.875 9.375H15.625C15.9688 9.375 16.25 9.65625 16.25 10V16.25Z" fill="#84BD5A"/>
<path d="M5.63712 12.7402L6.50649 11.6508C6.76649 11.3108 7.27149 11.7452 6.98649 12.0702C6.68712 12.4252 6.37212 12.8102 6.07212 13.2046L7.09149 14.4739C7.36649 14.8489 6.81712 15.2083 6.54712 14.8383L5.62712 13.6589L4.72274 14.8639C4.46774 15.2283 3.90274 14.8189 4.18774 14.4789L5.19212 13.2046C4.87712 12.8096 4.57212 12.4252 4.26774 12.0702C3.95337 11.6952 4.53774 11.3108 4.76774 11.6614L5.63712 12.7402Z" fill="white"/>
<path d="M7.70703 11.8402C7.70703 11.6752 7.84703 11.5352 8.02203 11.5352C8.18203 11.5352 8.31703 11.6758 8.31703 11.8402V14.3439H9.67641C10.1658 14.3439 10.1764 14.9983 9.67641 14.9983H8.02266C7.84766 14.9983 7.70766 14.8739 7.70766 14.6939V11.8402H7.70703Z" fill="white"/>
<path d="M10.6244 12.2916C10.7394 11.3216 12.2032 11.1472 12.8932 11.6772C13.2332 11.9516 12.8732 12.3866 12.5732 12.1666C12.2032 11.9322 11.3638 11.8222 11.2588 12.341C11.1238 13.161 13.2976 12.6916 13.2626 14.021C13.2276 15.2903 11.3888 15.3197 10.6988 14.7503C10.5332 14.6153 10.5388 14.396 10.6288 14.2603C10.7588 14.131 10.9032 14.086 11.0738 14.226C11.4832 14.5053 12.5382 14.7153 12.6126 14.0053C12.5482 13.2666 10.4694 13.711 10.6244 12.2916Z" fill="white"/>
<path d="M15.625 16.875H3.75V17.5H15.625C15.9688 17.5 16.25 17.2188 16.25 16.875V16.25C16.25 16.5938 15.9688 16.875 15.625 16.875Z" fill="#CAD1D8"/>
</svg>
