<svg width="92" height="38" viewBox="0 0 92 38" fill="none" xmlns="http://www.w3.org/2000/svg">
<path d="M77.6729 31.0147H74.3052V11.9001H77.6729V14.9511C77.6729 15.1348 77.7478 15.2084 77.9349 15.2084C78.1594 15.2084 78.2342 15.0981 78.3091 14.8408C78.9826 12.7455 80.6665 11.7898 83.1362 11.7898H85.344V15.0246H82.6498C79.3942 15.0246 77.6729 16.4949 77.6729 20.1708V31.0147Z" fill="#0A0B0F"/>
<path d="M53.9473 25.3902C53.9473 22.082 56.1924 20.0418 61.057 19.8397L68.1667 19.5456V18.5164C68.1667 15.7962 66.7448 14.2156 63.3022 14.2156C59.8596 14.2156 58.475 15.7962 58.4002 17.7812H54.9202C55.0699 14.1421 57.6892 11.3484 63.3022 11.3484C68.9151 11.3484 71.4222 14.1421 71.4222 18.7001V31.0143H68.1667V28.1104C68.1667 27.9634 68.0919 27.8898 67.9422 27.8898C67.7925 27.8898 67.6616 27.9266 67.568 28.1472C66.6887 30.1689 64.7615 31.5657 61.4312 31.5657C56.9408 31.5657 53.9473 29.0661 53.9473 25.3902ZM57.315 25.3902C57.315 27.412 58.9989 28.6985 61.9925 28.6985C65.7345 28.6985 68.1667 26.6033 68.1667 22.5598V22.3393L61.057 22.6333C58.4376 22.7436 57.315 23.7361 57.315 25.3902Z" fill="#0A0B0F"/>
<path d="M42.0602 31.0155L35.9233 12.6361V11.9009H39.2911L44.9041 28.8834C44.9789 29.104 45.0537 29.1775 45.2782 29.1775C45.5028 29.1775 45.5776 29.104 45.6524 28.8834L51.2654 11.9009H54.6332V12.6361L48.4963 31.0155H42.0602Z" fill="#0A0B0F"/>
<path d="M18.0171 25.3902C18.0171 22.082 20.2623 20.0418 25.1268 19.8397L32.2365 19.5456V18.5164C32.2365 15.7962 30.8146 14.2156 27.372 14.2156C23.9294 14.2156 22.5449 15.7962 22.47 17.7812H18.99C19.1397 14.1421 21.7591 11.3484 27.372 11.3484C32.9849 11.3484 35.4921 14.1421 35.4921 18.7001V31.0143H32.2365V28.1104C32.2365 27.9634 32.1617 27.8898 32.012 27.8898C31.8624 27.8898 31.7314 27.9266 31.6378 28.1472C30.7585 30.1689 28.8314 31.5657 25.501 31.5657C21.0107 31.5657 18.0171 29.0661 18.0171 25.3902ZM21.3849 25.3902C21.3849 27.412 23.0687 28.6985 26.0623 28.6985C29.8043 28.6985 32.2365 26.6033 32.2365 22.5598V22.3393L25.1268 22.6333C22.5074 22.7436 21.3849 23.7361 21.3849 25.3902Z" fill="#0A0B0F"/>
<path d="M6.06198 31.0155L0 12.6361V11.9009H3.36777L8.94329 29.0672C9.01813 29.2878 9.13039 29.3613 9.35491 29.3613C9.57942 29.3613 9.69168 29.2878 9.76652 29.0672L15.342 11.9009H18.7098V12.6361L11.8994 33.2577C10.702 36.8601 8.71877 37.9996 4.60261 37.9996H1.01033V35.0589H2.99357C5.23875 35.0589 6.13682 35.3162 6.88521 35.3162C7.37167 35.3162 7.61489 35.1324 7.74586 34.7649L8.83103 31.8977C8.94329 31.6036 8.98071 31.4198 8.86845 31.236C8.75619 31.0522 8.64393 31.0155 8.34458 31.0155H6.06198Z" fill="#0A0B0F"/>
<path fill-rule="evenodd" clip-rule="evenodd" d="M91.9823 0.0366556C92.0149 2.52362 91.9927 4.91059 91.9901 7.36374C91.8661 7.53724 91.6997 7.66959 91.5437 7.81205C90.8145 8.54617 90.0544 9.25012 89.3193 9.97823C89.068 10.2236 88.8029 10.4872 88.5438 10.7383C88.5168 10.7646 88.4701 10.8324 88.4185 10.799C88.42 9.26359 88.388 7.70297 88.4185 6.21586C88.4342 5.45173 88.4185 4.72333 88.4185 3.93563C88.4185 3.79639 88.4369 3.64676 88.3871 3.51762C86.0164 3.46652 83.5719 3.51645 81.0953 3.48717C81.0817 3.42758 81.1484 3.39756 81.1815 3.3655C81.7367 2.8267 82.2825 2.28936 82.8497 1.739C83.1413 1.45613 83.4269 1.19112 83.7347 0.864913C83.9378 0.649686 84.1772 0.443097 84.4082 0.218939C84.4897 0.140023 84.5868 0.0253818 84.6824 0.0136688C84.9645 -0.0210311 85.2911 0.0212822 85.5988 0.0212822C87.641 0.0214286 89.8821 0.00869074 91.9823 0.0366556Z" fill="#A319C6"/>
</svg>
